<svg width="1000" height="1000" viewBox="0 0 1000 1000" fill="none" xmlns="http://www.w3.org/2000/svg">
<g clip-path="url(#clip0_10_8241)">
<rect width="1000" height="1000" fill="url(#paint0_radial_10_8241)"/>
<path opacity="0.6" d="M813.7 561C838.9 566.7 902.4 590.7 891.4 628.1C880.9 663.3 807.5 665.2 788.9 699.9C782.1 712.6 799.7 731.9 807.2 738.6C824.3 753.9 829.2 780.2 815.1 794.7C790.2 820.3 701.6 882.9 453.5 801.4C232.3 728.7 145.2 779.3 118.2 726.7C90.6 672.6 258.1 589.7 313.3 571.9C450.8 527.5 500.3 563.9 565.2 556.5C703.8 540.6 728.7 542 813.7 561Z" fill="url(#paint1_linear_10_8241)"/>
<path style="mix-blend-mode:multiply" opacity="0.3" d="M698.9 606.4C716.2 610.1 809.1 610.5 801.5 634.7C794.3 657.5 714.5 673.6 701.8 696.1C697.2 704.3 700.7 722.8 705.8 727.2C717.6 737.1 722.7 756.5 713 765.9C695.9 782.5 620 821 449.7 768C297.9 720.7 196.3 746 177.8 711.9C158.8 676.8 299 601.1 336.8 589.6C431.1 560.9 483.9 608.1 528.4 603.3C623.5 593.1 640.6 594 698.9 606.4Z" fill="url(#paint2_linear_10_8241)"/>
<path style="mix-blend-mode:multiply" opacity="0.3" d="M618.6 622.7C631.5 625.6 701 625.8 695.3 645C689.9 663 630.2 675.8 620.7 693.6C617.2 700.2 619.8 714.8 623.7 718.2C632.5 726.1 636.3 741.4 629 748.9C616.2 762 559.4 792.5 432.1 750.7C318.6 713.4 242.6 733.5 228.7 706.5C214.5 678.8 319.4 618.8 347.8 609.6C418.3 586.9 457.8 624.2 491.1 620.3C562.2 612.2 575 612.9 618.6 622.7Z" fill="url(#paint3_linear_10_8241)"/>
<path style="mix-blend-mode:screen" opacity="0.6" d="M583.2 239C571.4 242.5 429.6 286.4 429.1 286.6C421.8 288.8 417.3 291.5 412.2 299.3C411.9 299.7 323 434.9 322.6 435.4C314.6 448.5 322.6 456.8 325 460L443.5 614.3C449 621.6 456.5 620.9 466.6 617.6L613.2 578.8C617.4 577.7 621.9 577 625.7 575.2C631.2 572.5 635.2 568.7 638.7 562.5C638.7 562.5 740.7 419.8 726 400.2L609.1 244.3C604.4 238 598 234.5 583.2 239Z" fill="url(#paint4_linear_10_8241)"/>
<path style="mix-blend-mode:screen" opacity="0.6" d="M583.2 239C571.4 242.5 429.6 286.4 429.1 286.6C421.8 288.8 417.3 291.5 412.2 299.3C411.9 299.7 323 434.9 322.6 435.4C314.6 448.5 322.6 456.8 325 460L443.5 614.3C449 621.6 456.5 620.9 466.6 617.6L613.2 578.8C617.4 577.7 621.9 577 625.7 575.2C631.2 572.5 635.2 568.7 638.7 562.5C638.7 562.5 740.7 419.8 726 400.2L609.1 244.3C604.4 238 598 234.5 583.2 239Z" fill="url(#paint5_linear_10_8241)"/>
<path style="mix-blend-mode:screen" opacity="0.6" d="M326.2 460.3L493.7 387.8L605.5 239.4L609.1 244.3C604.4 238 598 234.5 583.2 239C571.4 242.5 429.6 286.4 429.1 286.6C421.8 288.8 417.3 291.5 412.2 299.3C411.9 299.7 323 434.9 322.6 435.4C314.6 448.5 322.6 456.8 325 460L326.2 460.3Z" fill="url(#paint6_linear_10_8241)"/>
<path opacity="0.6" d="M505.4 402.7L631.7 571.2C634.4 569 636.6 566.2 638.7 562.5C638.7 562.5 740.7 419.8 726 400.2L605.5 239.4L505.5 384.3C501.3 389.7 501.3 397.2 505.4 402.7Z" fill="url(#paint7_linear_10_8241)"/>
<path opacity="0.2" d="M613.7 522.2C610.3 497.9 612.7 473.4 614.1 448.9C613.567 435.367 612.033 421.933 609.5 408.6C605.767 396.533 601.233 384.8 595.9 373.4C591.3 366.4 586.333 359.667 581 353.2C579.467 351.933 577.9 350.633 576.3 349.3C565.7 340.7 556.9 330.9 549.7 320.2L505.5 384.3C501.3 389.7 501.3 397.2 505.4 402.7L621.6 557.7C618 546.2 615.4 534.3 613.7 522.2Z" fill="white"/>
<path opacity="0.2" d="M589.7 262.3C589.834 262.633 590 263 590.2 263.4C598.1 281.1 613.5 288.3 627 300.8C633.1 306.4 638.7 312.5 644.5 318.3C650.5 324.3 656 330.2 660.1 337.6C668.7 352.9 671.2 369.2 669.6 386.5C668.2 401.3 663.6 415.7 657.9 429.3C652.3 443 644.2 456.2 640.5 470.7C634.2 495.5 640.8 520.2 652.1 542.6C652.167 542.733 652.234 542.833 652.3 542.9C679.6 503.2 737.3 415.3 726 400.2L605.5 239.4L589.7 262.3Z" fill="white"/>
<path opacity="0.6" d="M505.4 402.7L631.7 571.2C628.8 573.1 625.5 574.5 621.3 575.5C621.3 575.5 455.8 633.3 441.1 613.7L323.9 457.4L487.7 397.6C494.1 395.2 501.3 397.2 505.4 402.7Z" fill="url(#paint8_linear_10_8241)"/>
<path opacity="0.1" d="M505.4 402.7L631.7 571.2C628.8 573.1 625.5 574.5 621.3 575.5C621.3 575.5 455.8 633.3 441.1 613.7L323.9 457.4L487.7 397.6C494.1 395.2 501.3 397.2 505.4 402.7Z" fill="#006DF4"/>
<path opacity="0.1" d="M472 616.5C483.7 613.1 495.9 610.6 507.9 609.3C508.167 609.3 508.4 609.3 508.6 609.3C534 603.2 561.8 594.9 583.4 588C587.1 586.2 590.9 584.5 594.7 582.9C594.967 582.767 595.2 582.667 595.4 582.6C596.4 580.7 597.2 578.8 598.1 576.9C599.5 573.6 599.1 575 599.7 572.1C600.2 569.8 600.6 567.3 600.8 564.8C601.2 559.4 600.5 553.8 599.6 548.4C595.3 521.4 577.1 500 561.8 478.4C559.933 475.8 558.1 473.2 556.3 470.6L514 414.2C513.467 413.933 512.933 413.633 512.4 413.3C498.1 404 474.9 416.1 460.9 420.7C434 429.7 407.2 439.7 382 452.6C371.4 458.1 360.4 464.1 351.7 472.2C348.5 475.1 341.6 476.2 343.3 483.2C343.4 483.5 344.1 484.3 344.1 484.3C344.5 484.6 345.5 486.6 346 486.8C362.8 496.2 384.6 490.7 400.4 481.8C417.8 472 433 460.5 452.9 456.5C470.7 452.9 489.9 456.8 503.3 469.6C531.3 496.4 565.3 541.5 531 577.2C516.2 592.6 497.8 595.4 477.4 594.8C468.7 594.6 462.2 593.7 453.9 595C448.9 595.8 446.8 596.4 443.6 601.5C441.3 605.1 440.1 608.5 439.7 611.8L441.1 613.7C444.6 618.3 456.2 618.7 472 616.5Z" fill="white"/>
<path style="mix-blend-mode:multiply" opacity="0.2" d="M725.4 400.7L557.8 473.2L446.1 621.6L442.5 616.7C447.2 623 453.5 626.5 468.4 622C480.1 618.5 622 574.6 622.5 574.4C629.8 572.2 633.4 568.9 639.4 561.7C679.7 514.2 723.2 424.2 723.4 423.7C728.9 408.4 728.9 404.2 726.5 401L725.4 400.7Z" fill="url(#paint9_linear_10_8241)"/>
<path opacity="0.7" d="M627.3 558.1C627.3 558.1 602.2 536.9 585.9 513.3C569.5 489.7 566.9 485.2 553.8 470.2C540.6 455.3 534.9 444.5 526 432C517.1 419.4 500.2 407.1 501.2 395.2C502.1 383.3 508.7 370.8 512.2 367.1C521.5 357.5 527.7 348.9 544 333.2C560.3 317.6 572.2 303.4 574.8 301.3C577.3 299.3 580.1 299.1 571.3 308.7C562.5 318.4 532.9 347.5 523 358.1C513.2 368.7 510.8 378.9 510.9 388.9C511 398.7 509.3 399.1 515.8 409.6C522.2 420.2 542.9 446.9 554.3 460.7C565.8 474.4 575.1 488.5 584.1 499.7C593 510.8 627.2 549.6 627.3 558.1Z" fill="url(#paint10_linear_10_8241)"/>
<path opacity="0.6" d="M504.1 401.5C504.1 401.5 490 408.1 476.6 412.5C463.1 416.9 457 418.9 436.3 424.4C415.6 430 396.1 434.9 386.5 439.5C376.9 444.1 398.6 428.4 409 426.5C419.4 424.6 441.8 417.6 458.9 411.2C476 404.7 502.3 393 504.1 401.5Z" fill="url(#paint11_linear_10_8241)"/>
<path d="M438.2 560.6C435.4 556.9 430.5 555.8 427.3 558.2C424 560.7 423.7 565.6 426.5 569.4C429.3 573.1 434.2 574.2 437.4 571.7C440.7 569.3 441 564.3 438.2 560.6Z" fill="url(#paint12_radial_10_8241)"/>
<path d="M438.2 560.6C435.4 556.9 430.5 555.8 427.3 558.2C424 560.7 423.7 565.6 426.5 569.4C429.3 573.1 434.2 574.2 437.4 571.7C440.7 569.3 441 564.3 438.2 560.6Z" fill="url(#paint13_radial_10_8241)"/>
<path d="M432.5 561.5C431 559.5 428.3 558.9 426.5 560.2C424.7 561.6 424.5 564.3 426.1 566.4C427.6 568.4 430.3 569 432.1 567.7C433.9 566.3 434.1 563.6 432.5 561.5Z" fill="url(#paint14_radial_10_8241)"/>
<path d="M434.1 566.2C433.1 564.9 431.5 564.6 430.4 565.4C429.3 566.2 429.2 567.9 430.1 569.2C431 570.4 432.7 570.8 433.8 570C434.9 569.1 435 567.5 434.1 566.2Z" fill="url(#paint15_radial_10_8241)"/>
<path d="M466.8 475.3C464 471.5 459.2 470.5 455.9 472.9C452.7 475.3 452.3 480.3 455.1 484.1C457.9 487.8 462.8 488.9 466 486.4C469.3 484 469.6 479 466.8 475.3Z" fill="url(#paint16_radial_10_8241)"/>
<path d="M466.8 475.3C464 471.5 459.2 470.5 455.9 472.9C452.7 475.3 452.3 480.3 455.1 484.1C457.9 487.8 462.8 488.9 466 486.4C469.3 484 469.6 479 466.8 475.3Z" fill="url(#paint17_radial_10_8241)"/>
<path d="M461.2 476.2C459.6 474.1 456.9 473.6 455.1 474.9C453.3 476.2 453.1 479 454.7 481.1C456.2 483.1 458.9 483.7 460.7 482.4C462.5 481 462.7 478.3 461.2 476.2Z" fill="url(#paint18_radial_10_8241)"/>
<path d="M462.7 480.9C461.8 479.6 460.1 479.2 459 480.1C457.9 480.9 457.8 482.6 458.7 483.8C459.7 485.1 461.3 485.5 462.4 484.6C463.5 483.8 463.7 482.1 462.7 480.9Z" fill="url(#paint19_radial_10_8241)"/>
<path d="M580.1 387C577.3 383.3 572.4 382.3 569.2 384.7C565.9 387.1 565.6 392.1 568.4 395.8C571.2 399.6 576.1 400.6 579.3 398.2C582.6 395.8 582.9 390.8 580.1 387Z" fill="url(#paint20_radial_10_8241)"/>
<path d="M580.1 387C577.3 383.3 572.4 382.3 569.2 384.7C565.9 387.1 565.6 392.1 568.4 395.8C571.2 399.6 576.1 400.6 579.3 398.2C582.6 395.8 582.9 390.8 580.1 387Z" fill="url(#paint21_radial_10_8241)"/>
<path d="M574.4 388C572.9 385.9 570.2 385.3 568.4 386.7C566.6 388 566.4 390.8 568 392.8C569.5 394.9 572.2 395.5 574 394.1C575.8 392.8 576 390 574.4 388Z" fill="url(#paint22_radial_10_8241)"/>
<path d="M576 392.6C575 391.4 573.4 391 572.3 391.8C571.2 392.7 571.1 394.4 572 395.6C572.9 396.9 574.6 397.3 575.7 396.4C576.8 395.6 576.9 393.9 576 392.6Z" fill="url(#paint23_radial_10_8241)"/>
<path d="M694.7 420.4C691.9 416.6 687 415.6 683.7 418C680.5 420.4 680.1 425.4 682.9 429.2C685.7 432.9 690.6 434 693.9 431.5C697.1 429.1 697.5 424.1 694.7 420.4Z" fill="url(#paint24_radial_10_8241)"/>
<path d="M694.7 420.4C691.9 416.6 687 415.6 683.7 418C680.5 420.4 680.1 425.4 682.9 429.2C685.7 432.9 690.6 434 693.9 431.5C697.1 429.1 697.5 424.1 694.7 420.4Z" fill="url(#paint25_radial_10_8241)"/>
<path d="M689 421.3C687.4 419.2 684.7 418.7 683 420C681.2 421.3 681 424.1 682.5 426.2C684.1 428.2 686.8 428.8 688.5 427.5C690.3 426.1 690.5 423.4 689 421.3Z" fill="url(#paint26_radial_10_8241)"/>
<path d="M690.5 426C689.6 424.7 687.9 424.4 686.8 425.2C685.7 426 685.6 427.7 686.6 429C687.5 430.2 689.2 430.6 690.3 429.8C691.4 428.9 691.5 427.2 690.5 426Z" fill="url(#paint27_radial_10_8241)"/>
<path d="M575 539.5C572.2 535.8 567.3 534.7 564 537.1C560.8 539.6 560.4 544.6 563.2 548.3C566 552 570.9 553.1 574.2 550.7C577.4 548.2 577.8 543.2 575 539.5Z" fill="url(#paint28_radial_10_8241)"/>
<path d="M575 539.5C572.2 535.8 567.3 534.7 564 537.1C560.8 539.6 560.4 544.6 563.2 548.3C566 552 570.9 553.1 574.2 550.7C577.4 548.2 577.8 543.2 575 539.5Z" fill="url(#paint29_radial_10_8241)"/>
<path d="M569.3 540.4C567.7 538.4 565 537.8 563.3 539.1C561.5 540.5 561.3 543.2 562.8 545.3C564.4 547.4 567.1 547.9 568.8 546.6C570.6 545.3 570.8 542.5 569.3 540.4Z" fill="url(#paint30_radial_10_8241)"/>
<path d="M570.8 545.1C569.9 543.8 568.2 543.5 567.1 544.3C566 545.1 565.9 546.8 566.9 548.1C567.8 549.4 569.5 549.7 570.6 548.9C571.7 548.1 571.8 546.4 570.8 545.1Z" fill="url(#paint31_radial_10_8241)"/>
<path d="M468.9 341.8C466.1 338.1 461.2 337 458 339.4C454.7 341.9 454.4 346.9 457.2 350.6C460 354.3 464.9 355.4 468.1 353C471.3 350.5 471.7 345.5 468.9 341.8Z" fill="url(#paint32_radial_10_8241)"/>
<path d="M468.9 341.8C466.1 338.1 461.2 337 458 339.4C454.7 341.9 454.4 346.9 457.2 350.6C460 354.3 464.9 355.4 468.1 353C471.3 350.5 471.7 345.5 468.9 341.8Z" fill="url(#paint33_radial_10_8241)"/>
<path d="M463.2 342.7C461.7 340.7 459 340.1 457.2 341.4C455.4 342.8 455.2 345.5 456.7 347.6C458.3 349.6 461 350.2 462.8 348.9C464.6 347.5 464.8 344.8 463.2 342.7Z" fill="url(#paint34_radial_10_8241)"/>
<path d="M464.8 347.4C463.8 346.1 462.2 345.8 461.1 346.6C460 347.4 459.8 349.1 460.8 350.4C461.7 351.6 463.4 352 464.5 351.2C465.6 350.4 465.7 348.7 464.8 347.4Z" fill="url(#paint35_radial_10_8241)"/>
<path opacity="0.4" d="M592.9 573.1C592.9 573.1 564.6 576.7 547.8 586C531 595.3 536.8 590 525.3 594.1C513.9 598.2 506.8 603.3 498.4 602.8C490.1 602.3 491.6 598.3 481.8 603.2C471.9 608.1 456.2 611.3 460.8 612.9C465.3 614.6 472 612.2 487.3 609.7C502.6 607.2 501.6 608.7 517.7 602.5C533.8 596.2 553.5 590.7 561 586.4C568.6 582 591.6 580.6 592.9 573.1Z" fill="url(#paint36_linear_10_8241)"/>
<path opacity="0.2" d="M563.8 251.7C563.8 251.7 535.5 255.3 518.7 264.6C501.9 273.9 507.6 268.6 496.2 272.7C484.7 276.8 477.6 281.9 469.3 281.4C461 280.9 462.5 276.9 452.6 281.8C442.8 286.7 427.1 289.9 431.6 291.5C436.2 293.2 442.9 290.8 458.2 288.3C473.5 285.8 472.4 287.3 488.6 281.1C504.7 274.8 524.3 269.3 531.9 265C539.5 260.6 562.5 259.2 563.8 251.7Z" fill="url(#paint37_linear_10_8241)"/>
<path opacity="0.4" d="M693.4 460.3C693.4 460.3 686.4 468.2 681 476.1C675.6 484.1 673.1 487.7 665.7 500.1C658.2 512.6 651.3 524.4 646.5 529.8C641.6 535.2 656 524 659.2 517.6C662.4 511.1 671.2 497.9 678.6 488C686 478 698.6 463.1 693.4 460.3Z" fill="url(#paint38_linear_10_8241)"/>
<path opacity="0.4" d="M397 334.3C397 334.3 390.1 342.2 384.7 350.2C379.3 358.1 376.8 361.7 369.3 374.2C361.8 386.6 355 398.4 350.1 403.8C345.3 409.2 359.6 398.1 362.9 391.6C366.1 385.2 374.8 371.9 382.2 362C389.6 352.1 402.2 337.1 397 334.3Z" fill="url(#paint39_linear_10_8241)"/>
<g opacity="0.6">
<path opacity="0.6" d="M410.9 539.8C416.9 536.3 413.8 528.8 408.8 520.2C405.7 515.1 391.3 501.1 388 499.3C392.5 499.5 407.7 514.4 411.7 521.1C416.8 529.6 419.8 537.1 413.8 540.7C411 542.4 407.4 542.4 403.9 540.9C406.4 541.4 408.8 541.1 410.9 539.8Z" fill="url(#paint40_linear_10_8241)"/>
<path d="M390.9 530.9C395.9 539.4 404.9 543.4 410.9 539.8C416.9 536.3 413.5 528.9 408.8 520.2C401.6 507.1 388 499.3 388 499.3C388 499.3 385.8 522.4 390.9 530.9Z" fill="url(#paint41_radial_10_8241)"/>
<path d="M394.3 532.7C396.6 536.6 400.6 538.5 403.3 536.9C405.9 535.3 406.2 530.9 403.9 527C401.6 523.1 397.5 521.2 394.9 522.8C392.2 524.3 391.9 528.8 394.3 532.7Z" fill="url(#paint42_radial_10_8241)"/>
<path d="M396.1 522C397.1 523.8 399 524.6 400.2 523.9C401.4 523.2 401.5 521.2 400.4 519.4C399.4 517.7 397.6 516.8 396.4 517.6C395.2 518.3 395 520.3 396.1 522Z" fill="url(#paint43_radial_10_8241)"/>
<path d="M407.4 536.8C408.1 537.9 409.2 538.5 410 538C410.7 537.5 410.8 536.3 410.1 535.2C409.5 534.1 408.3 533.5 407.6 534C406.8 534.4 406.7 535.7 407.4 536.8Z" fill="url(#paint44_radial_10_8241)"/>
</g>
<g opacity="0.6">
<path opacity="0.6" d="M643.6 363.8C635.7 371.1 625.9 363.3 615.5 352.1C609.1 345.2 594.6 317.9 593.4 312.2C591.8 318.9 607.3 348 615.5 356.9C625.9 368.1 635.7 375.9 643.6 368.5C647.4 365 648.9 359.7 648.3 353.9C647.9 357.8 646.4 361.2 643.6 363.8Z" fill="url(#paint45_linear_10_8241)"/>
<path d="M639.1 330.1C649.5 341.3 651.5 356.4 643.6 363.8C635.7 371.1 626.3 362.9 615.5 352.1C599.1 335.7 593.4 312.2 593.4 312.2C593.4 312.2 628.6 318.9 639.1 330.1Z" fill="url(#paint46_radial_10_8241)"/>
<path d="M640.2 335.9C645 341.1 646.1 347.9 642.6 351.2C639.1 354.4 632.3 352.9 627.6 347.8C622.8 342.6 621.7 335.8 625.2 332.5C628.7 329.3 635.5 330.8 640.2 335.9Z" fill="url(#paint47_radial_10_8241)"/>
<path d="M623.6 334C625.8 336.4 626.3 339.4 624.7 340.9C623.1 342.4 620.1 341.7 617.9 339.4C615.7 337 615.3 334 616.9 332.5C618.4 331 621.5 331.7 623.6 334Z" fill="url(#paint48_radial_10_8241)"/>
<path d="M640.7 357.2C642 358.7 642.3 360.7 641.3 361.6C640.3 362.5 638.4 362.1 637 360.6C635.7 359.2 635.4 357.2 636.4 356.3C637.4 355.3 639.3 355.8 640.7 357.2Z" fill="url(#paint49_radial_10_8241)"/>
</g>
<path style="mix-blend-mode:screen" opacity="0.6" d="M791.3 524.4C784.5 522 702.5 492.7 702.3 492.6C698 491.1 695 490.8 689.9 492.6C689.6 492.7 600.4 524.9 600 525C591.7 528.3 592.5 535 592.5 537.3L593.8 651.3C593.8 656.7 597.6 659 603.5 661L685.9 694.4C688.2 695.3 690.6 696.6 693 697C696.5 697.7 699.7 697.3 703.6 695.6C703.6 695.6 801.5 664.6 801.5 650.3V536C801.5 531.4 799.8 527.6 791.3 524.4Z" fill="url(#paint50_linear_10_8241)"/>
<path style="mix-blend-mode:screen" opacity="0.6" d="M791.3 524.4C784.5 522 702.5 492.7 702.3 492.6C698 491.1 695 490.8 689.9 492.6C689.6 492.7 600.4 524.9 600 525C591.7 528.3 592.5 535 592.5 537.3L593.8 651.3C593.8 656.7 597.6 659 603.5 661L685.9 694.4C688.2 695.3 690.6 696.6 693 697C696.5 697.7 699.7 697.3 703.6 695.6C703.6 695.6 801.5 664.6 801.5 650.3V536C801.5 531.4 799.8 527.6 791.3 524.4Z" fill="url(#paint51_linear_10_8241)"/>
<path style="mix-blend-mode:screen" opacity="0.6" d="M592.9 537.9L697 562.8L801.5 532.5V536C801.5 531.4 799.8 527.6 791.3 524.4C784.5 522 702.5 492.7 702.3 492.6C698 491.1 695 490.8 689.9 492.6C689.6 492.7 600.4 524.9 600 525C591.7 528.3 592.5 535 592.5 537.3L592.9 537.9Z" fill="url(#paint52_linear_10_8241)"/>
<path opacity="0.6" d="M697.2 573.9V697.3C699.3 697.2 701.3 696.6 703.6 695.6C703.6 695.6 801.5 664.6 801.5 650.3V532.5L703.7 565.3C699.9 566.4 697.2 569.9 697.2 573.9Z" fill="url(#paint53_linear_10_8241)"/>
<path opacity="0.2" d="M706 668C713 655.4 722.7 644.7 732 633.8C736.466 627.2 740.466 620.333 744 613.2C746.466 606.267 748.466 599.167 750 591.9C750.266 587.033 750.3 582.133 750.1 577.2C749.833 576.067 749.566 574.933 749.3 573.8C747.3 566 746.6 558.3 747 550.8L703.7 565.3C699.9 566.4 697.2 569.9 697.2 573.9V687.4C699.6 680.7 702.5 674.2 706 668Z" fill="white"/>
<path opacity="0.2" d="M786.1 537.7C786.033 537.9 785.967 538.1 785.9 538.3C783.5 549.4 788.1 558.2 790.1 568.9C790.9 573.6 791.4 578.4 792.1 583.2C792.9 588.1 793.3 592.8 792.7 597.7C791.3 607.9 786.8 616.5 779.9 624C774.1 630.4 766.8 635.6 759.4 640C751.9 644.4 743.5 647.7 736.7 653.2C725 662.7 719.4 676.6 716.9 691C716.9 691.133 716.866 691.233 716.8 691.3C743.6 682.2 801.5 661.3 801.5 650.3V532.5L786.1 537.7Z" fill="white"/>
<path opacity="0.6" d="M697.2 573.9V697.3C695.2 697.2 693.1 696.6 690.9 695.6C690.9 695.6 592.9 664.6 592.9 650.3V535.7L690.7 565.3C694.6 566.4 697.2 569.9 697.2 573.9Z" fill="url(#paint54_linear_10_8241)"/>
<path opacity="0.1" d="M697.2 573.9V697.3C695.2 697.2 693.1 696.6 690.9 695.6C690.9 695.6 592.9 664.6 592.9 650.3V535.7L690.7 565.3C694.6 566.4 697.2 569.9 697.2 573.9Z" fill="#006DF4"/>
<path opacity="0.1" d="M606.4 662.4C613.1 664.9 619.7 668 625.8 671.7C625.933 671.767 626.033 671.833 626.1 671.9C640.2 677.9 656.1 683.8 668.7 688.2C671.1 688.7 673.4 689.2 675.8 689.8C675.933 689.8 676.067 689.833 676.2 689.9C677.3 689.3 678.4 688.7 679.4 688.1C681.3 687.1 680.6 687.6 681.9 686.5C683 685.5 684 684.5 685 683.4C687.1 681 688.7 678.2 690.2 675.3C697.6 661.1 696.7 644.7 697.1 629.2C697.1 627.333 697.133 625.467 697.2 623.6V582.3C697.067 581.967 696.933 581.633 696.8 581.3C693.4 571.9 678.2 569.4 670 566.7C654.3 561.4 638.2 556.7 621.8 553.9C614.9 552.7 607.7 551.7 600.7 552.4C598.2 552.7 594.6 550.7 592.9 554.6C592.8 554.8 592.9 555.4 592.9 555.4C593 555.7 592.8 557 592.9 557.3C597.5 567.6 609.7 572.7 620.2 574.1C631.8 575.6 642.9 575.5 653.7 580.6C663.3 585.2 670.9 593.8 672.7 604.5C676.4 626.9 676.5 660 647.9 664.7C635.6 666.8 625.9 661.6 616.6 654.1C612.6 651 609.9 648.3 605.5 646C602.8 644.6 601.7 644.1 598.4 645.4C596.1 646.2 594.3 647.4 592.9 648.8V650.3C592.9 653.6 598.2 657.8 606.4 662.4Z" fill="white"/>
<path style="mix-blend-mode:multiply" opacity="0.2" d="M801.1 650.3L697 625.4L592.5 655.7V652.1C592.5 656.7 594.3 660.6 602.8 663.7C609.5 666.2 691.5 695.5 691.8 695.6C696 697.1 698.8 696.8 704.2 695.6C739.8 687.4 791.8 660.5 792.1 660.3C800 655.1 801.5 653.2 801.5 650.8L801.1 650.3Z" fill="url(#paint55_linear_10_8241)"/>
<path opacity="0.7" d="M699.8 689.6C699.8 689.6 695.4 670.8 696.1 654C696.7 637.2 697.1 634.2 696.2 622.5C695.3 610.9 696.4 603.8 696.6 594.8C696.8 585.8 693.3 574.1 697.9 568.9C702.5 563.6 710 560 712.9 559.6C720.7 558.3 726.6 556.5 739.7 554.9C752.9 553.2 763.5 550.8 765.4 550.7C767.3 550.6 768.7 551.6 761.2 553C753.6 554.4 729.5 557.7 721.2 559.2C712.8 560.6 708.1 564.6 704.7 569.3C701.3 574 700.3 573.5 699.7 580.8C699 588 699.3 607.8 699.8 618.2C700.3 628.7 699.8 638.6 700 647C700.3 655.4 702.7 685.6 699.8 689.6Z" fill="url(#paint56_linear_10_8241)"/>
<path opacity="0.6" d="M697 572.8C697 572.8 688.1 571 680.3 568.3C672.4 565.7 668.8 564.5 657.2 559.8C645.6 555.1 634.7 550.5 628.5 549.3C622.4 548.1 638.1 548.4 643.7 551.1C649.2 553.9 662.2 558.5 672.5 561.5C682.7 564.5 699.2 568.2 697 572.8Z" fill="url(#paint57_linear_10_8241)"/>
<path d="M610.2 624.3C610.2 621.6 608.3 619.3 605.9 619.3C603.6 619.3 601.6 621.6 601.6 624.3C601.6 627 603.6 629.2 605.9 629.2C608.3 629.2 610.2 627 610.2 624.3Z" fill="url(#paint58_radial_10_8241)"/>
<path d="M610.2 624.3C610.2 621.6 608.3 619.3 605.9 619.3C603.6 619.3 601.6 621.6 601.6 624.3C601.6 627 603.6 629.2 605.9 629.2C608.3 629.2 610.2 627 610.2 624.3Z" fill="url(#paint59_radial_10_8241)"/>
<path d="M607.2 622.7C607.2 621.2 606.2 620 604.9 620C603.6 620 602.5 621.2 602.5 622.7C602.5 624.2 603.6 625.5 604.9 625.5C606.2 625.5 607.2 624.2 607.2 622.7Z" fill="url(#paint60_radial_10_8241)"/>
<path d="M606.299 625.5C606.299 624.5 605.699 623.8 604.899 623.8C604.099 623.8 603.399 624.5 603.399 625.5C603.399 626.4 604.099 627.1 604.899 627.1C605.699 627.1 606.299 626.4 606.299 625.5Z" fill="url(#paint61_radial_10_8241)"/>
<path d="M653.6 594.3C653.6 591.6 651.7 589.4 649.4 589.4C647 589.4 645.1 591.6 645.1 594.3C645.1 597.1 647 599.3 649.4 599.3C651.7 599.3 653.6 597.1 653.6 594.3Z" fill="url(#paint62_radial_10_8241)"/>
<path d="M653.6 594.3C653.6 591.6 651.7 589.4 649.4 589.4C647 589.4 645.1 591.6 645.1 594.3C645.1 597.1 647 599.3 649.4 599.3C651.7 599.3 653.6 597.1 653.6 594.3Z" fill="url(#paint63_radial_10_8241)"/>
<path d="M650.699 592.8C650.699 591.3 649.599 590.1 648.299 590.1C646.999 590.1 645.899 591.3 645.899 592.8C645.899 594.3 646.999 595.5 648.299 595.5C649.599 595.5 650.699 594.3 650.699 592.8Z" fill="url(#paint64_radial_10_8241)"/>
<path d="M649.7 595.5C649.7 594.6 649.1 593.8 648.3 593.8C647.5 593.8 646.8 594.6 646.8 595.5C646.8 596.4 647.5 597.2 648.3 597.2C649.1 597.2 649.7 596.4 649.7 595.5Z" fill="url(#paint65_radial_10_8241)"/>
<path d="M737.8 592.8C737.8 590.1 735.8 587.8 733.5 587.8C731.1 587.8 729.2 590.1 729.2 592.8C729.2 595.5 731.1 597.7 733.5 597.7C735.8 597.7 737.8 595.5 737.8 592.8Z" fill="url(#paint66_radial_10_8241)"/>
<path d="M737.8 592.8C737.8 590.1 735.8 587.8 733.5 587.8C731.1 587.8 729.2 590.1 729.2 592.8C729.2 595.5 731.1 597.7 733.5 597.7C735.8 597.7 737.8 595.5 737.8 592.8Z" fill="url(#paint67_radial_10_8241)"/>
<path d="M734.799 591.2C734.799 589.7 733.7 588.5 732.4 588.5C731.1 588.5 730 589.7 730 591.2C730 592.7 731.1 594 732.4 594C733.7 594 734.799 592.7 734.799 591.2Z" fill="url(#paint68_radial_10_8241)"/>
<path d="M733.9 594C733.9 593 733.2 592.3 732.4 592.3C731.6 592.3 730.9 593 730.9 594C730.9 594.9 731.6 595.6 732.4 595.6C733.2 595.6 733.9 594.9 733.9 594Z" fill="url(#paint69_radial_10_8241)"/>
<path d="M779.8 648.7C779.8 646 777.9 643.7 775.5 643.7C773.1 643.7 771.2 646 771.2 648.7C771.2 651.4 773.1 653.6 775.5 653.6C777.9 653.6 779.8 651.4 779.8 648.7Z" fill="url(#paint70_radial_10_8241)"/>
<path d="M779.8 648.7C779.8 646 777.9 643.7 775.5 643.7C773.1 643.7 771.2 646 771.2 648.7C771.2 651.4 773.1 653.6 775.5 653.6C777.9 653.6 779.8 651.4 779.8 648.7Z" fill="url(#paint71_radial_10_8241)"/>
<path d="M776.799 647.1C776.799 645.6 775.7 644.4 774.4 644.4C773.1 644.4 772 645.6 772 647.1C772 648.6 773.1 649.9 774.4 649.9C775.7 649.9 776.799 648.6 776.799 647.1Z" fill="url(#paint72_radial_10_8241)"/>
<path d="M775.9 649.9C775.9 648.9 775.2 648.2 774.4 648.2C773.6 648.2 773 648.9 773 649.9C773 650.8 773.6 651.5 774.4 651.5C775.2 651.5 775.9 650.8 775.9 649.9Z" fill="url(#paint73_radial_10_8241)"/>
<path d="M681.8 662.5C681.8 659.7 679.8 657.5 677.5 657.5C675.1 657.5 673.2 659.7 673.2 662.5C673.2 665.2 675.1 667.4 677.5 667.4C679.8 667.4 681.8 665.2 681.8 662.5Z" fill="url(#paint74_radial_10_8241)"/>
<path d="M681.8 662.5C681.8 659.7 679.8 657.5 677.5 657.5C675.1 657.5 673.2 659.7 673.2 662.5C673.2 665.2 675.1 667.4 677.5 667.4C679.8 667.4 681.8 665.2 681.8 662.5Z" fill="url(#paint75_radial_10_8241)"/>
<path d="M678.799 660.9C678.799 659.4 677.7 658.2 676.4 658.2C675.1 658.2 674 659.4 674 660.9C674 662.4 675.1 663.7 676.4 663.7C677.7 663.7 678.799 662.4 678.799 660.9Z" fill="url(#paint76_radial_10_8241)"/>
<path d="M677.9 663.7C677.9 662.7 677.2 662 676.4 662C675.6 662 674.9 662.7 674.9 663.7C674.9 664.6 675.6 665.3 676.4 665.3C677.2 665.3 677.9 664.6 677.9 663.7Z" fill="url(#paint77_radial_10_8241)"/>
<path d="M701.5 532.5C701.5 529.7 699.6 527.5 697.2 527.5C694.9 527.5 692.9 529.7 692.9 532.5C692.9 535.2 694.9 537.4 697.2 537.4C699.6 537.4 701.5 535.2 701.5 532.5Z" fill="url(#paint78_radial_10_8241)"/>
<path d="M701.5 532.5C701.5 529.7 699.6 527.5 697.2 527.5C694.9 527.5 692.9 529.7 692.9 532.5C692.9 535.2 694.9 537.4 697.2 537.4C699.6 537.4 701.5 535.2 701.5 532.5Z" fill="url(#paint79_radial_10_8241)"/>
<path d="M698.5 530.9C698.5 529.4 697.5 528.2 696.2 528.2C694.9 528.2 693.8 529.4 693.8 530.9C693.8 532.4 694.9 533.7 696.2 533.7C697.5 533.7 698.5 532.4 698.5 530.9Z" fill="url(#paint80_radial_10_8241)"/>
<path d="M697.6 533.7C697.6 532.7 697 532 696.2 532C695.4 532 694.7 532.7 694.7 533.7C694.7 534.6 695.4 535.3 696.2 535.3C697 535.3 697.6 534.6 697.6 533.7Z" fill="url(#paint81_radial_10_8241)"/>
<path opacity="0.4" d="M678.4 684.5C678.4 684.5 663.9 676.3 652.7 674.7C641.6 673.2 646.1 672.7 639.3 670.6C632.5 668.5 627.4 668.4 623.6 665.2C619.9 662.1 622 660.8 615.7 659.6C609.3 658.4 600.9 654.4 602.4 656.8C603.9 659.1 607.9 660.4 616 664.6C624 668.8 623 669.1 632.8 671.9C642.6 674.6 653.7 678.9 658.8 679.5C663.8 680.2 675.1 687.6 678.4 684.5Z" fill="url(#paint82_linear_10_8241)"/>
<path opacity="0.2" d="M777.7 523.6C777.7 523.6 763.2 515.3 752 513.8C740.9 512.2 745.4 511.8 738.6 509.7C731.8 507.6 726.7 507.4 722.9 504.3C719.2 501.1 721.3 499.8 715 498.6C708.6 497.5 700.2 493.4 701.7 495.8C703.3 498.2 707.2 499.5 715.3 503.7C723.4 507.9 722.3 508.2 732.1 510.9C741.9 513.6 753 518 758.1 518.6C763.1 519.2 774.4 526.6 777.7 523.6Z" fill="url(#paint83_linear_10_8241)"/>
<path opacity="0.4" d="M765.1 666.9C765.1 666.9 759.1 668.2 753.8 670C748.4 671.9 746 672.7 738.1 675.9C730.2 679.1 722.9 682.2 718.7 683.1C714.6 683.9 725.2 683.7 729 681.8C732.7 679.9 741.5 676.8 748.5 674.7C755.4 672.7 766.6 670.1 765.1 666.9Z" fill="url(#paint84_linear_10_8241)"/>
<path opacity="0.4" d="M670.4 503.7C670.4 503.7 664.4 505 659.1 506.8C653.8 508.6 651.3 509.5 643.5 512.7C635.6 515.9 628.2 519 624 519.8C619.9 520.7 630.5 520.5 634.3 518.6C638.1 516.7 646.8 513.5 653.8 511.5C660.7 509.4 671.9 506.9 670.4 503.7Z" fill="url(#paint85_linear_10_8241)"/>
<g opacity="0.6">
<path opacity="0.6" d="M604.7 605C608.8 605.4 610 600.8 610.6 595C611 591.5 609.1 579.9 608.2 577.9C610.2 579.6 612.2 591.9 611.7 596.5C611.1 602.2 609.9 606.8 605.8 606.4C603.8 606.2 602.2 604.9 601.1 603C602.1 604.1 603.3 604.8 604.7 605Z" fill="url(#paint86_linear_10_8241)"/>
<path d="M598.5 593.7C597.9 599.5 600.6 604.5 604.7 605C608.8 605.4 609.8 600.8 610.6 595C611.8 586.3 608.2 577.9 608.2 577.9C608.2 577.9 599.1 588 598.5 593.7Z" fill="url(#paint87_radial_10_8241)"/>
<path d="M599.4 595.8C599.1 598.4 600.4 600.7 602.2 600.9C604 601.1 605.7 599.1 606 596.5C606.2 593.8 605 591.5 603.2 591.3C601.4 591.1 599.7 593.1 599.4 595.8Z" fill="url(#paint88_radial_10_8241)"/>
<path d="M604 591.4C603.9 592.6 604.5 593.6 605.3 593.7C606.1 593.8 606.8 592.9 607 591.7C607.1 590.5 606.5 589.5 605.7 589.4C604.9 589.3 604.2 590.2 604 591.4Z" fill="url(#paint89_radial_10_8241)"/>
<path d="M604.1 602.3C604.1 603.1 604.4 603.7 604.9 603.8C605.4 603.8 605.9 603.3 606 602.5C606.1 601.8 605.7 601.1 605.2 601C604.7 601 604.2 601.6 604.1 602.3Z" fill="url(#paint90_radial_10_8241)"/>
</g>
<g opacity="0.6">
<path opacity="0.6" d="M775.7 604.2C769.4 604.9 767.6 597.7 766.6 588.8C766.1 583.4 768.9 565.5 770.3 562.3C767.2 564.9 764.2 584 765 591.1C765.9 600 767.8 607.1 774.1 606.4C777.1 606.1 779.7 604.1 781.4 601.2C779.8 602.9 777.9 604 775.7 604.2Z" fill="url(#paint91_linear_10_8241)"/>
<path d="M785.4 586.8C786.4 595.7 782 603.5 775.7 604.2C769.4 604.9 767.9 597.7 766.6 588.8C764.7 575.4 770.3 562.3 770.3 562.3C770.3 562.3 784.5 577.9 785.4 586.8Z" fill="url(#paint92_radial_10_8241)"/>
<path d="M783.9 590C784.4 594.1 782.5 597.6 779.7 597.9C776.9 598.2 774.3 595.1 773.8 591C773.4 586.9 775.3 583.4 778.1 583.1C780.9 582.8 783.5 585.9 783.9 590Z" fill="url(#paint93_radial_10_8241)"/>
<path d="M776.8 583.2C777 585.1 776.1 586.7 774.9 586.8C773.6 587 772.4 585.6 772.2 583.7C772.1 581.9 772.9 580.3 774.2 580.1C775.4 580 776.6 581.4 776.8 583.2Z" fill="url(#paint94_radial_10_8241)"/>
<path d="M776.6 600.1C776.8 601.3 776.2 602.3 775.4 602.4C774.6 602.5 773.9 601.6 773.8 600.4C773.6 599.2 774.2 598.2 775 598.1C775.8 598.1 776.5 598.9 776.6 600.1Z" fill="url(#paint95_radial_10_8241)"/>
</g>
<path style="mix-blend-mode:screen" opacity="0.6" d="M622.7 416.2C609.5 411.3 448.4 353.8 447.9 353.7C439.6 350.7 433.7 350.1 423.5 353.7C423 353.8 247.7 417 247 417.3C230.6 423.8 232.3 436.9 232.3 441.6L234.9 665.5C234.9 676 242.3 680.6 253.9 684.6L415.8 750C420.3 751.9 424.9 754.4 429.8 755.3C436.6 756.7 442.9 755.9 450.5 752.6C450.5 752.6 642.9 691.6 642.9 663.4V439C642.9 430 639.5 422.3 622.7 416.2Z" fill="url(#paint96_linear_10_8241)"/>
<path style="mix-blend-mode:screen" opacity="0.6" d="M622.7 416.2C609.5 411.3 448.4 353.8 447.9 353.7C439.6 350.7 433.7 350.1 423.5 353.7C423 353.8 247.7 417 247 417.3C230.6 423.8 232.3 436.9 232.3 441.6L234.9 665.5C234.9 676 242.3 680.6 253.9 684.6L415.8 750C420.3 751.9 424.9 754.4 429.8 755.3C436.6 756.7 442.9 755.9 450.5 752.6C450.5 752.6 642.9 691.6 642.9 663.4V439C642.9 430 639.5 422.3 622.7 416.2Z" fill="url(#paint97_linear_10_8241)"/>
<path style="mix-blend-mode:screen" opacity="0.6" d="M233.1 442.7L437.6 491.5L642.9 432V439C642.9 430 639.5 422.3 622.7 416.2C609.5 411.3 448.4 353.8 447.9 353.7C439.6 350.7 433.7 350.1 423.5 353.7C423 353.8 247.7 417 247 417.3C230.6 423.8 232.3 436.9 232.3 441.6L233.1 442.7Z" fill="url(#paint98_linear_10_8241)"/>
<path opacity="0.6" d="M438 513.3V755.9C442 755.6 446 754.6 450.5 752.6C450.5 752.6 642.9 691.6 642.9 663.4V432L450.8 496.5C443.2 498.6 438 505.5 438 513.3Z" fill="url(#paint99_linear_10_8241)"/>
<path opacity="0.2" d="M455.3 698.2C468.9 673.5 488.1 652.6 506.3 631C515.1 618.133 522.967 604.7 529.9 590.7C534.7 577 538.7 563 541.6 548.8C542.2 539.2 542.267 529.6 541.8 520C541.333 517.733 540.8 515.467 540.2 513.2C536.4 497.9 535 482.8 535.8 467.9L450.8 496.5C443.2 498.6 438 505.5 438 513.3V736.4C442.7 723.3 448.4 710.5 455.3 698.2Z" fill="white"/>
<path opacity="0.2" d="M612.6 442.2C612.533 442.6 612.433 443.033 612.3 443.5C607.4 465.3 616.6 482.6 620.4 503.5C622.1 512.8 623.1 522.3 624.5 531.7C625.9 541.3 626.8 550.5 625.5 560.2C622.8 580.2 613.9 597 600.5 611.9C589 624.5 574.7 634.6 560.2 643.2C545.5 651.9 528.9 658.5 515.6 669.3C492.6 687.8 481.6 715.1 476.6 743.5C476.6 743.7 476.567 743.867 476.5 744C529.1 726.2 642.9 685.1 642.9 663.4V432L612.6 442.2Z" fill="white"/>
<path opacity="0.6" d="M438 513.3V755.9C434 755.6 430 754.6 425.5 752.6C425.5 752.6 233.1 691.6 233.1 663.4V438.4L425.2 496.5C432.8 498.6 438 505.5 438 513.3Z" fill="url(#paint100_linear_10_8241)"/>
<path opacity="0.1" d="M438 513.3V755.9C434 755.6 430 754.6 425.5 752.6C425.5 752.6 233.1 691.6 233.1 663.4V438.4L425.2 496.5C432.8 498.6 438 505.5 438 513.3Z" fill="#006DF4"/>
<path opacity="0.1" d="M259.5 687.3C272.8 692.2 285.7 698.3 297.6 705.5C297.867 705.633 298.1 705.767 298.3 705.9C325.9 717.8 357.3 729.3 382 737.9C386.6 738.9 391.3 739.8 395.9 741C396.167 741.067 396.467 741.133 396.8 741.2C398.9 740.2 401 739 403.1 737.9C406.7 735.8 405.4 736.7 407.9 734.6C410 732.8 412.1 730.7 413.9 728.6C418 723.8 421.3 718.3 424.2 712.7C438.8 684.8 436.9 652.5 437.7 622C437.833 618.333 437.933 614.7 438 611.1V529.9C437.733 529.233 437.467 528.567 437.2 527.9C430.4 509.5 400.7 504.6 384.6 499.2C353.6 488.9 322 479.6 289.8 474.1C276.3 471.8 262 469.8 248.4 471.2C243.5 471.7 236.4 467.9 233.1 475.6C232.9 475.9 233.1 477.1 233.1 477.1C233.3 477.7 232.8 480.2 233.1 480.8C242 501 266 511.1 286.6 513.8C309.4 516.7 331.4 516.6 352.5 526.6C371.4 535.6 386.3 552.5 389.8 573.5C397.1 617.6 397.3 682.5 341.1 691.8C316.8 695.8 297.9 685.7 279.5 671C271.7 664.8 266.4 659.5 257.7 655C252.6 652.2 250.2 651.3 243.8 653.8C239.2 655.5 235.7 657.9 233.1 660.6V663.4C233.1 670 243.5 678.3 259.5 687.3Z" fill="white"/>
<path style="mix-blend-mode:multiply" opacity="0.2" d="M642 663.4L437.6 614.5L232.2 674V667.1C232.2 676.1 235.7 683.7 252.4 689.9C265.7 694.7 426.8 752.2 427.3 752.4C435.6 755.4 441.2 754.8 451.6 752.4C521.6 736.4 623.8 683.6 624.3 683.2C639.9 672.9 642.9 669.1 642.9 664.5L642 663.4Z" fill="url(#paint101_linear_10_8241)"/>
<path opacity="0.7" d="M443 740.7C443 740.7 434.5 703.9 435.7 670.8C437 637.8 437.7 631.9 435.9 609C434.1 586.1 436.3 572.2 436.8 554.5C437.2 536.8 430.2 513.8 439.3 503.5C448.4 493.2 463.1 486.2 468.8 485.3C484 482.8 495.7 479.2 521.5 476C547.3 472.8 568.1 467.9 571.9 467.8C575.7 467.7 578.4 469.5 563.6 472.3C548.9 475.1 501.4 481.5 485.1 484.4C468.7 487.4 459.4 495.1 452.6 504.4C446 513.6 444.1 512.7 442.8 526.9C441.5 541.1 442 580 443.1 600.5C444.1 621.1 443 640.5 443.5 657C444.1 673.5 448.8 732.8 443 740.7Z" fill="url(#paint102_linear_10_8241)"/>
<path opacity="0.6" d="M437.6 511.3C437.6 511.3 420.1 507.7 404.7 502.5C389.2 497.2 382.2 494.9 359.4 485.7C336.5 476.5 315.1 467.5 303 465.1C291 462.7 321.9 463.3 332.8 468.7C343.7 474.1 369.1 483.1 389.3 489C409.5 494.9 441.9 502.2 437.6 511.3Z" fill="url(#paint103_linear_10_8241)"/>
<path d="M267.1 612.4C267.1 607 263.3 602.7 258.6 602.7C254 602.7 250.2 607 250.2 612.4C250.2 617.8 254 622.1 258.6 622.1C263.3 622.1 267.1 617.8 267.1 612.4Z" fill="url(#paint104_radial_10_8241)"/>
<path d="M267.1 612.4C267.1 607 263.3 602.7 258.6 602.7C254 602.7 250.2 607 250.2 612.4C250.2 617.8 254 622.1 258.6 622.1C263.3 622.1 267.1 617.8 267.1 612.4Z" fill="url(#paint105_radial_10_8241)"/>
<path d="M261.2 609.3C261.2 606.4 259.1 604 256.5 604C254 604 251.9 606.4 251.9 609.3C251.9 612.3 254 614.7 256.5 614.7C259.1 614.7 261.2 612.3 261.2 609.3Z" fill="url(#paint106_radial_10_8241)"/>
<path d="M259.4 614.7C259.4 612.9 258.1 611.4 256.5 611.4C255 611.4 253.7 612.9 253.7 614.7C253.7 616.5 255 618 256.5 618C258.1 618 259.4 616.5 259.4 614.7Z" fill="url(#paint107_radial_10_8241)"/>
<path d="M352.4 553.6C352.4 548.2 348.6 543.8 343.9 543.8C339.3 543.8 335.5 548.2 335.5 553.6C335.5 558.9 339.3 563.3 343.9 563.3C348.6 563.3 352.4 558.9 352.4 553.6Z" fill="url(#paint108_radial_10_8241)"/>
<path d="M352.4 553.6C352.4 548.2 348.6 543.8 343.9 543.8C339.3 543.8 335.5 548.2 335.5 553.6C335.5 558.9 339.3 563.3 343.9 563.3C348.6 563.3 352.4 558.9 352.4 553.6Z" fill="url(#paint109_radial_10_8241)"/>
<path d="M346.5 550.5C346.5 547.5 344.4 545.1 341.8 545.1C339.3 545.1 337.2 547.5 337.2 550.5C337.2 553.5 339.3 555.9 341.8 555.9C344.4 555.9 346.5 553.5 346.5 550.5Z" fill="url(#paint110_radial_10_8241)"/>
<path d="M344.7 555.9C344.7 554.1 343.4 552.6 341.8 552.6C340.3 552.6 339 554.1 339 555.9C339 557.7 340.3 559.2 341.8 559.2C343.4 559.2 344.7 557.7 344.7 555.9Z" fill="url(#paint111_radial_10_8241)"/>
<path d="M517.7 550.5C517.7 545.1 513.9 540.8 509.2 540.8C504.5 540.8 500.8 545.1 500.8 550.5C500.8 555.9 504.5 560.2 509.2 560.2C513.9 560.2 517.7 555.9 517.7 550.5Z" fill="url(#paint112_radial_10_8241)"/>
<path d="M517.7 550.5C517.7 545.1 513.9 540.8 509.2 540.8C504.5 540.8 500.8 545.1 500.8 550.5C500.8 555.9 504.5 560.2 509.2 560.2C513.9 560.2 517.7 555.9 517.7 550.5Z" fill="url(#paint113_radial_10_8241)"/>
<path d="M511.8 547.5C511.8 544.5 509.7 542.1 507.1 542.1C504.5 542.1 502.5 544.5 502.5 547.5C502.5 550.4 504.5 552.8 507.1 552.8C509.7 552.8 511.8 550.4 511.8 547.5Z" fill="url(#paint114_radial_10_8241)"/>
<path d="M510 552.8C510 551 508.7 549.5 507.1 549.5C505.5 549.5 504.3 551 504.3 552.8C504.3 554.6 505.5 556.1 507.1 556.1C508.7 556.1 510 554.6 510 552.8Z" fill="url(#paint115_radial_10_8241)"/>
<path d="M600.2 660.3C600.2 655 596.4 650.6 591.7 650.6C587.1 650.6 583.3 655 583.3 660.3C583.3 665.7 587.1 670.1 591.7 670.1C596.4 670.1 600.2 665.7 600.2 660.3Z" fill="url(#paint116_radial_10_8241)"/>
<path d="M600.2 660.3C600.2 655 596.4 650.6 591.7 650.6C587.1 650.6 583.3 655 583.3 660.3C583.3 665.7 587.1 670.1 591.7 670.1C596.4 670.1 600.2 665.7 600.2 660.3Z" fill="url(#paint117_radial_10_8241)"/>
<path d="M594.3 657.3C594.3 654.3 592.2 651.9 589.6 651.9C587.1 651.9 585 654.3 585 657.3C585 660.2 587.1 662.6 589.6 662.6C592.2 662.6 594.3 660.2 594.3 657.3Z" fill="url(#paint118_radial_10_8241)"/>
<path d="M592.5 662.6C592.5 660.8 591.2 659.3 589.6 659.3C588.1 659.3 586.8 660.8 586.8 662.6C586.8 664.5 588.1 665.9 589.6 665.9C591.2 665.9 592.5 664.5 592.5 662.6Z" fill="url(#paint119_radial_10_8241)"/>
<path d="M407.6 687.4C407.6 682.1 403.9 677.7 399.2 677.7C394.5 677.7 390.7 682.1 390.7 687.4C390.7 692.8 394.5 697.2 399.2 697.2C403.9 697.2 407.6 692.8 407.6 687.4Z" fill="url(#paint120_radial_10_8241)"/>
<path d="M407.6 687.4C407.6 682.1 403.9 677.7 399.2 677.7C394.5 677.7 390.7 682.1 390.7 687.4C390.7 692.8 394.5 697.2 399.2 697.2C403.9 697.2 407.6 692.8 407.6 687.4Z" fill="url(#paint121_radial_10_8241)"/>
<path d="M401.8 684.4C401.8 681.4 399.7 679 397.1 679C394.5 679 392.4 681.4 392.4 684.4C392.4 687.3 394.5 689.7 397.1 689.7C399.7 689.7 401.8 687.3 401.8 684.4Z" fill="url(#paint122_radial_10_8241)"/>
<path d="M400 689.7C400 687.9 398.7 686.4 397.1 686.4C395.5 686.4 394.2 687.9 394.2 689.7C394.2 691.6 395.5 693 397.1 693C398.7 693 400 691.6 400 689.7Z" fill="url(#paint123_radial_10_8241)"/>
<path d="M446.4 432C446.5 426.7 442.7 422.3 438 422.3C433.3 422.3 429.6 426.7 429.6 432C429.6 437.4 433.3 441.8 438 441.8C442.7 441.8 446.5 437.4 446.5 432H446.4Z" fill="url(#paint124_radial_10_8241)"/>
<path d="M446.4 432C446.5 426.7 442.7 422.3 438 422.3C433.3 422.3 429.6 426.7 429.6 432C429.6 437.4 433.3 441.8 438 441.8C442.7 441.8 446.5 437.4 446.5 432H446.4Z" fill="url(#paint125_radial_10_8241)"/>
<path d="M440.6 429C440.6 426 438.5 423.6 435.9 423.6C433.3 423.6 431.2 426 431.2 429C431.2 431.9 433.3 434.3 435.9 434.3C438.5 434.3 440.6 431.9 440.6 429Z" fill="url(#paint126_radial_10_8241)"/>
<path d="M438.8 434.3C438.8 432.5 437.5 431 435.9 431C434.3 431 433 432.5 433 434.3C433 436.2 434.3 437.6 435.9 437.6C437.5 437.6 438.8 436.2 438.8 434.3Z" fill="url(#paint127_radial_10_8241)"/>
<path opacity="0.4" d="M401 730.7C401 730.7 372.5 714.5 350.5 711.5C328.6 708.4 337.5 707.6 324.2 703.5C310.8 699.3 300.8 699.1 293.4 692.8C286.1 686.6 290.2 684 277.8 681.8C265.3 679.5 248.7 671.5 251.7 676.2C254.7 680.9 262.6 683.4 278.4 691.6C294.2 699.9 292.2 700.5 311.4 705.9C330.6 711.2 352.5 719.7 362.4 721C372.4 722.2 394.6 736.8 401 730.7Z" fill="url(#paint128_linear_10_8241)"/>
<path opacity="0.2" d="M596.1 414.5C596.1 414.5 567.6 398.3 545.6 395.3C523.7 392.2 532.6 391.4 519.3 387.2C505.9 383.1 495.9 382.8 488.5 376.6C481.2 370.4 485.3 367.8 472.9 365.5C460.4 363.2 443.8 355.3 446.8 360C449.8 364.6 457.7 367.1 473.5 375.4C489.3 383.6 487.3 384.3 506.5 389.6C525.7 395 547.6 403.5 557.5 404.7C567.5 406 589.7 420.6 596.1 414.5Z" fill="url(#paint129_linear_10_8241)"/>
<path opacity="0.4" d="M571.4 696.2C571.4 696.2 559.6 698.7 549.1 702.3C538.6 705.9 533.9 707.5 518.4 713.8C502.9 720.1 488.4 726.2 480.2 727.9C472 729.5 493 729.1 500.4 725.4C507.8 721.7 525 715.5 538.7 711.5C552.3 707.4 574.3 702.4 571.4 696.2Z" fill="url(#paint130_linear_10_8241)"/>
<path opacity="0.4" d="M385.4 375.5C385.4 375.5 373.5 378 363.1 381.6C352.6 385.2 347.9 386.8 332.4 393.1C316.9 399.4 302.4 405.5 294.2 407.2C286 408.8 306.9 408.4 314.3 404.7C321.7 401 339 394.8 352.7 390.8C366.3 386.7 388.2 381.7 385.4 375.5Z" fill="url(#paint131_linear_10_8241)"/>
<g opacity="0.6">
<path opacity="0.6" d="M256.201 574.4C264.201 575.3 266.601 566.2 267.801 554.9C268.501 548 265.001 525.2 263.101 521.3C267.101 524.6 270.901 548.8 269.901 557.7C268.701 569.1 266.401 578.1 258.401 577.3C254.501 576.9 251.301 574.3 249.101 570.6C251.001 572.7 253.501 574.1 256.201 574.4Z" fill="url(#paint132_linear_10_8241)"/>
<path d="M244 552.4C242.8 563.7 248.3 573.6 256.2 574.4C264.2 575.3 266.2 566.2 267.8 554.9C270.2 537.8 263.1 521.3 263.1 521.3C263.1 521.3 245.2 541 244 552.4Z" fill="url(#paint133_radial_10_8241)"/>
<path d="M245.8 556.3C245.3 561.5 247.7 566.1 251.3 566.4C254.8 566.8 258.1 562.9 258.7 557.7C259.2 552.5 256.8 548 253.3 547.6C249.7 547.2 246.4 551.2 245.8 556.3Z" fill="url(#paint134_radial_10_8241)"/>
<path d="M254.9 547.8C254.6 550.1 255.7 552.2 257.3 552.4C258.9 552.5 260.4 550.8 260.7 548.4C260.9 546.1 259.8 544 258.2 543.9C256.6 543.7 255.1 545.5 254.9 547.8Z" fill="url(#paint135_radial_10_8241)"/>
<path d="M255.1 569.2C255 570.7 255.6 572 256.7 572.1C257.7 572.2 258.6 571.1 258.8 569.6C258.9 568.1 258.2 566.8 257.2 566.7C256.2 566.6 255.3 567.7 255.1 569.2Z" fill="url(#paint136_radial_10_8241)"/>
</g>
<g opacity="0.6">
<path opacity="0.6" d="M592.3 572.9C579.9 574.2 576.3 560.3 574.4 542.7C573.2 532 578.8 496.8 581.6 490.7C575.5 495.8 569.6 533.3 571.1 547.1C573 564.7 576.6 578.7 589 577.3C594.9 576.7 600 572.8 603.4 567C600.3 570.3 596.5 572.5 592.3 572.9Z" fill="url(#paint137_linear_10_8241)"/>
<path d="M611.3 538.8C613.1 556.3 604.6 571.6 592.3 572.9C579.9 574.2 576.9 560.2 574.4 542.7C570.6 516.3 581.6 490.7 581.6 490.7C581.6 490.7 609.4 521.2 611.3 538.8Z" fill="url(#paint138_radial_10_8241)"/>
<path d="M608.4 545C609.2 553 605.5 560 600 560.6C594.5 561.2 589.4 555.1 588.5 547.1C587.6 539 591.4 532 596.9 531.5C602.4 530.9 607.5 536.9 608.4 545Z" fill="url(#paint139_radial_10_8241)"/>
<path d="M594.401 531.7C594.801 535.4 593.101 538.5 590.601 538.8C588.101 539 585.801 536.3 585.401 532.7C585.001 529.1 586.701 525.9 589.201 525.6C591.701 525.4 594.001 528.1 594.401 531.7Z" fill="url(#paint140_radial_10_8241)"/>
<path d="M594 564.9C594.3 567.2 593.2 569.2 591.6 569.3C590.1 569.5 588.6 567.8 588.3 565.5C588.1 563.2 589.2 561.2 590.7 561C592.3 560.9 593.8 562.6 594 564.9Z" fill="url(#paint141_radial_10_8241)"/>
</g>
<g opacity="0.3">
<path d="M435.9 780.7C435.9 775.3 432.2 770.9 427.5 770.9C422.8 770.9 419.1 775.3 419.1 780.7C419.1 786 422.8 790.4 427.5 790.4C432.2 790.4 435.9 786 435.9 780.7Z" fill="url(#paint142_radial_10_8241)"/>
<path d="M435.9 780.7C435.9 775.3 432.2 770.9 427.5 770.9C422.8 770.9 419.1 775.3 419.1 780.7C419.1 786 422.8 790.4 427.5 790.4C432.2 790.4 435.9 786 435.9 780.7Z" fill="url(#paint143_radial_10_8241)"/>
<path d="M430.1 777.6C430.1 774.6 428 772.2 425.4 772.2C422.8 772.2 420.7 774.6 420.7 777.6C420.7 780.6 422.8 783 425.4 783C428 783 430.1 780.6 430.1 777.6Z" fill="url(#paint144_radial_10_8241)"/>
<path d="M428.3 783C428.3 781.2 427 779.7 425.4 779.7C423.8 779.7 422.5 781.2 422.5 783C422.5 784.8 423.8 786.3 425.4 786.3C427 786.3 428.3 784.8 428.3 783Z" fill="url(#paint145_radial_10_8241)"/>
</g>
<g opacity="0.3">
<path d="M725.3 711.3C725.3 705.9 721.5 701.5 716.8 701.5C712.2 701.5 708.4 705.9 708.4 711.3C708.4 716.6 712.2 721 716.8 721C721.5 721 725.3 716.6 725.3 711.3Z" fill="url(#paint146_radial_10_8241)"/>
<path d="M725.3 711.3C725.3 705.9 721.5 701.5 716.8 701.5C712.2 701.5 708.4 705.9 708.4 711.3C708.4 716.6 712.2 721 716.8 721C721.5 721 725.3 716.6 725.3 711.3Z" fill="url(#paint147_radial_10_8241)"/>
<path d="M719.4 708.2C719.4 705.2 717.3 702.8 714.7 702.8C712.2 702.8 710.1 705.2 710.1 708.2C710.1 711.2 712.2 713.6 714.7 713.6C717.3 713.6 719.4 711.2 719.4 708.2Z" fill="url(#paint148_radial_10_8241)"/>
<path d="M717.6 713.6C717.6 711.8 716.3 710.3 714.7 710.3C713.2 710.3 711.9 711.8 711.9 713.6C711.9 715.4 713.2 716.9 714.7 716.9C716.3 716.9 717.6 715.4 717.6 713.6Z" fill="url(#paint149_radial_10_8241)"/>
</g>
<g opacity="0.3">
<path d="M774.7 779.7C774.7 774.3 770.9 770 766.2 770C761.6 770 757.8 774.3 757.8 779.7C757.8 785.1 761.6 789.4 766.2 789.4C770.9 789.4 774.7 785.1 774.7 779.7Z" fill="url(#paint150_radial_10_8241)"/>
<path d="M774.7 779.7C774.7 774.3 770.9 770 766.2 770C761.6 770 757.8 774.3 757.8 779.7C757.8 785.1 761.6 789.4 766.2 789.4C770.9 789.4 774.7 785.1 774.7 779.7Z" fill="url(#paint151_radial_10_8241)"/>
<path d="M768.8 776.6C768.8 773.7 766.7 771.3 764.1 771.3C761.6 771.3 759.5 773.7 759.5 776.6C759.5 779.6 761.6 782 764.1 782C766.7 782 768.8 779.6 768.8 776.6Z" fill="url(#paint152_radial_10_8241)"/>
<path d="M767 782C767 780.2 765.7 778.7 764.1 778.7C762.6 778.7 761.3 780.2 761.3 782C761.3 783.8 762.6 785.3 764.1 785.3C765.7 785.3 767 783.8 767 782Z" fill="url(#paint153_radial_10_8241)"/>
</g>
<g opacity="0.3">
<path d="M832.5 608.2C832.5 602.9 828.7 598.5 824 598.5C819.4 598.5 815.6 602.9 815.6 608.2C815.6 613.6 819.4 618 824 618C828.7 618 832.5 613.6 832.5 608.2Z" fill="url(#paint154_radial_10_8241)"/>
<path d="M832.5 608.2C832.5 602.9 828.7 598.5 824 598.5C819.4 598.5 815.6 602.9 815.6 608.2C815.6 613.6 819.4 618 824 618C828.7 618 832.5 613.6 832.5 608.2Z" fill="url(#paint155_radial_10_8241)"/>
<path d="M826.6 605.2C826.6 602.2 824.5 599.8 821.9 599.8C819.4 599.8 817.3 602.2 817.3 605.2C817.3 608.1 819.4 610.5 821.9 610.5C824.5 610.5 826.6 608.1 826.6 605.2Z" fill="url(#paint156_radial_10_8241)"/>
<path d="M824.8 610.5C824.8 608.7 823.5 607.2 821.9 607.2C820.4 607.2 819.1 608.7 819.1 610.5C819.1 612.4 820.4 613.8 821.9 613.8C823.5 613.8 824.8 612.4 824.8 610.5Z" fill="url(#paint157_radial_10_8241)"/>
</g>
<g opacity="0.6">
<path opacity="0.6" d="M465.2 736.2C452.8 737.5 449.2 723.5 447.3 706C446.2 695.3 451.7 660.1 454.5 653.9C448.4 659 442.5 696.6 444 710.4C445.9 727.9 449.5 741.9 461.9 740.6C467.8 740 472.9 736.1 476.3 730.3C473.2 733.6 469.4 735.7 465.2 736.2Z" fill="url(#paint158_linear_10_8241)"/>
<path d="M484.2 702C486.1 719.6 477.6 734.9 465.2 736.2C452.8 737.5 449.8 723.4 447.3 706C443.5 679.6 454.5 653.9 454.5 653.9C454.5 653.9 482.3 684.5 484.2 702Z" fill="url(#paint159_radial_10_8241)"/>
<path d="M481.3 708.2C482.1 716.3 478.4 723.3 472.9 723.8C467.4 724.4 462.3 718.4 461.4 710.3C460.6 702.3 464.3 695.3 469.8 694.7C475.3 694.1 480.4 700.2 481.3 708.2Z" fill="url(#paint160_radial_10_8241)"/>
<path d="M467.3 695C467.7 698.6 466 701.8 463.5 702C461 702.3 458.7 699.6 458.3 695.9C457.9 692.3 459.6 689.2 462.1 688.9C464.6 688.6 466.9 691.4 467.3 695Z" fill="url(#paint161_radial_10_8241)"/>
<path d="M466.9 728.1C467.2 730.4 466.1 732.4 464.5 732.6C463 732.8 461.5 731 461.3 728.7C461 726.4 462.1 724.5 463.7 724.3C465.2 724.1 466.7 725.8 466.9 728.1Z" fill="url(#paint162_radial_10_8241)"/>
</g>
<g style="mix-blend-mode:soft-light">
<path d="M761.2 710.8C754.5 734.4 779.3 748.4 784.2 769.3C788.1 786.3 770.7 797.7 758.3 805.4C746.9 812.5 734.5 817.6 721.4 821.1C716.5 822.4 718.7 830.2 723.5 828.7C737 824.6 749.8 818.8 761.6 811C771.4 804.5 783.2 796.2 787.9 785C799.8 756.5 757.3 739.6 764.5 711.7C765.1 709.6 761.8 708.7 761.2 710.8Z" fill="white"/>
</g>
<g style="mix-blend-mode:soft-light">
<path d="M853.3 610.2C863.7 617.5 861.6 631.4 850.8 636.9C847.6 638.5 850.4 643 853.5 641.6C868.4 634.8 868.8 615 855.6 606.3C853.2 604.7 851 608.5 853.3 610.2Z" fill="white"/>
</g>
<g style="mix-blend-mode:soft-light">
<path d="M494.2 788.5C528.4 785.8 560.1 798.7 591.3 810.7C619.2 821.4 651.4 834.2 682 829.4C686.3 828.7 685.2 821.7 680.9 821.8C663.5 822.2 647.3 821.4 630.2 817.1C615 813.3 600.1 808 585.3 802.8C555.9 792.7 525.7 782.7 494.2 785.9C492.6 786 492.5 788.6 494.2 788.5Z" fill="white"/>
</g>
<g style="mix-blend-mode:soft-light">
<path d="M257.4 746.5C273.734 748.367 290.067 750.367 306.4 752.5C323.4 754.6 340.9 755.9 356.2 764C358.7 765.3 360.4 761.5 357.7 760.4C343.1 754.3 327.7 752.3 312.1 750.4C293.9 748.133 275.667 746 257.4 744C255.8 743.8 255.8 746.3 257.4 746.5Z" fill="white"/>
</g>
<g opacity="0.2">
<path d="M183.2 697.4C183.2 692 179.5 687.6 174.8 687.6C170.1 687.6 166.4 692 166.4 697.4C166.4 702.7 170.1 707.1 174.8 707.1C179.5 707.1 183.2 702.7 183.2 697.4Z" fill="url(#paint163_radial_10_8241)"/>
<path d="M183.2 697.4C183.2 692 179.5 687.6 174.8 687.6C170.1 687.6 166.4 692 166.4 697.4C166.4 702.7 170.1 707.1 174.8 707.1C179.5 707.1 183.2 702.7 183.2 697.4Z" fill="url(#paint164_radial_10_8241)"/>
<path d="M177.4 694.3C177.4 691.3 175.3 688.9 172.7 688.9C170.1 688.9 168 691.3 168 694.3C168 697.3 170.1 699.7 172.7 699.7C175.3 699.7 177.4 697.3 177.4 694.3Z" fill="url(#paint165_radial_10_8241)"/>
<path d="M175.6 699.7C175.6 697.8 174.3 696.4 172.7 696.4C171.1 696.4 169.8 697.8 169.8 699.7C169.8 701.5 171.1 703 172.7 703C174.3 703 175.6 701.5 175.6 699.7Z" fill="url(#paint166_radial_10_8241)"/>
</g>
<g style="mix-blend-mode:soft-light">
<path d="M153.5 710.5C160.5 727 177.1 737.2 194.9 736C197.1 735.8 197.1 732.4 194.9 732.6C178.1 733.9 162.6 724.6 155.9 709.2C155.2 707.6 152.8 709 153.5 710.5Z" fill="white"/>
</g>
</g>
<defs>
<radialGradient id="paint0_radial_10_8241" cx="0" cy="0" r="1" gradientUnits="userSpaceOnUse" gradientTransform="translate(500 500) rotate(90) scale(500)">
<stop stop-color="#6FE3F7"/>
<stop offset="1" stop-color="white" stop-opacity="0"/>
</radialGradient>
<linearGradient id="paint1_linear_10_8241" x1="828.5" y1="542.8" x2="52.5" y2="556.1" gradientUnits="userSpaceOnUse">
<stop offset="0.002" stop-color="#1CDEFF"/>
<stop offset="1" stop-color="#87FCFF"/>
</linearGradient>
<linearGradient id="paint2_linear_10_8241" x1="750.2" y1="574.9" x2="125.5" y2="584.4" gradientUnits="userSpaceOnUse">
<stop offset="0.002" stop-color="#1CDEFF"/>
<stop offset="1" stop-color="#87FCFF"/>
</linearGradient>
<linearGradient id="paint3_linear_10_8241" x1="657" y1="597.7" x2="189.7" y2="605.7" gradientUnits="userSpaceOnUse">
<stop offset="0.002" stop-color="#1CDEFF"/>
<stop offset="1" stop-color="#87FCFF"/>
</linearGradient>
<linearGradient id="paint4_linear_10_8241" x1="277.9" y1="397.2" x2="563.4" y2="183.3" gradientUnits="userSpaceOnUse">
<stop offset="0.002" stop-color="#1CDEFF"/>
<stop offset="1" stop-color="#87FCFF"/>
</linearGradient>
<linearGradient id="paint5_linear_10_8241" x1="277.9" y1="397.2" x2="563.4" y2="183.3" gradientUnits="userSpaceOnUse">
<stop offset="0.002" stop-color="#1CDEFF"/>
<stop offset="1" stop-color="#87FCFF"/>
</linearGradient>
<linearGradient id="paint6_linear_10_8241" x1="277.9" y1="397.2" x2="563.4" y2="183.3" gradientUnits="userSpaceOnUse">
<stop offset="0.002" stop-color="#1CDEFF"/>
<stop offset="1" stop-color="#87FCFF"/>
</linearGradient>
<linearGradient id="paint7_linear_10_8241" x1="320" y1="453.4" x2="605.5" y2="239.4" gradientUnits="userSpaceOnUse">
<stop offset="0.002" stop-color="#1CDEFF"/>
<stop offset="1" stop-color="#87FCFF"/>
</linearGradient>
<linearGradient id="paint8_linear_10_8241" x1="609.4" y1="243.4" x2="323.9" y2="457.4" gradientUnits="userSpaceOnUse">
<stop offset="0.002" stop-color="#1CDEFF"/>
<stop offset="1" stop-color="#87FCFF"/>
</linearGradient>
<linearGradient id="paint9_linear_10_8241" x1="773.4" y1="463.5" x2="488" y2="677.4" gradientUnits="userSpaceOnUse">
<stop offset="0.002" stop-color="#1CDEFF"/>
<stop offset="1" stop-color="#87FCFF"/>
</linearGradient>
<linearGradient id="paint10_linear_10_8241" x1="517" y1="186" x2="842.4" y2="221.7" gradientUnits="userSpaceOnUse">
<stop offset="0.003" stop-color="white"/>
<stop offset="1" stop-color="#87FCFF" stop-opacity="0"/>
</linearGradient>
<linearGradient id="paint11_linear_10_8241" x1="442.1" y1="454.8" x2="295.5" y2="354.8" gradientUnits="userSpaceOnUse">
<stop offset="0.003" stop-color="white"/>
<stop offset="1" stop-color="#87FCFF" stop-opacity="0"/>
</linearGradient>
<radialGradient id="paint12_radial_10_8241" cx="0" cy="0" r="1" gradientUnits="userSpaceOnUse" gradientTransform="translate(437.7 561.1) scale(14.2 14.2)">
<stop stop-color="#87FCFF" stop-opacity="0"/>
<stop offset="0.997" stop-color="white"/>
</radialGradient>
<radialGradient id="paint13_radial_10_8241" cx="0" cy="0" r="1" gradientUnits="userSpaceOnUse" gradientTransform="translate(437.7 561.1) scale(14.2 14.2)">
<stop stop-color="#87FCFF" stop-opacity="0"/>
<stop offset="0.997" stop-color="white"/>
</radialGradient>
<radialGradient id="paint14_radial_10_8241" cx="0" cy="0" r="1" gradientUnits="userSpaceOnUse" gradientTransform="translate(432.3 561.8) scale(7.8 7.80001)">
<stop stop-color="#87FCFF" stop-opacity="0"/>
<stop offset="0.997" stop-color="white"/>
</radialGradient>
<radialGradient id="paint15_radial_10_8241" cx="0" cy="0" r="1" gradientUnits="userSpaceOnUse" gradientTransform="translate(433.9 566.4) scale(4.8 4.79999)">
<stop stop-color="#87FCFF" stop-opacity="0"/>
<stop offset="0.997" stop-color="white"/>
</radialGradient>
<radialGradient id="paint16_radial_10_8241" cx="0" cy="0" r="1" gradientUnits="userSpaceOnUse" gradientTransform="translate(466.4 475.8) scale(14.2 14.2)">
<stop stop-color="#87FCFF" stop-opacity="0"/>
<stop offset="0.997" stop-color="white"/>
</radialGradient>
<radialGradient id="paint17_radial_10_8241" cx="0" cy="0" r="1" gradientUnits="userSpaceOnUse" gradientTransform="translate(466.4 475.8) scale(14.2 14.2)">
<stop stop-color="#87FCFF" stop-opacity="0"/>
<stop offset="0.997" stop-color="white"/>
</radialGradient>
<radialGradient id="paint18_radial_10_8241" cx="0" cy="0" r="1" gradientUnits="userSpaceOnUse" gradientTransform="translate(460.9 476.5) scale(7.8 7.8)">
<stop stop-color="#87FCFF" stop-opacity="0"/>
<stop offset="0.997" stop-color="white"/>
</radialGradient>
<radialGradient id="paint19_radial_10_8241" cx="0" cy="0" r="1" gradientUnits="userSpaceOnUse" gradientTransform="translate(462.6 481) scale(4.8)">
<stop stop-color="#87FCFF" stop-opacity="0"/>
<stop offset="0.997" stop-color="white"/>
</radialGradient>
<radialGradient id="paint20_radial_10_8241" cx="0" cy="0" r="1" gradientUnits="userSpaceOnUse" gradientTransform="translate(579.6 387.5) scale(14.2 14.2)">
<stop stop-color="#87FCFF" stop-opacity="0"/>
<stop offset="0.997" stop-color="white"/>
</radialGradient>
<radialGradient id="paint21_radial_10_8241" cx="0" cy="0" r="1" gradientUnits="userSpaceOnUse" gradientTransform="translate(579.6 387.5) scale(14.2 14.2)">
<stop stop-color="#87FCFF" stop-opacity="0"/>
<stop offset="0.997" stop-color="white"/>
</radialGradient>
<radialGradient id="paint22_radial_10_8241" cx="0" cy="0" r="1" gradientUnits="userSpaceOnUse" gradientTransform="translate(574.2 388.3) scale(7.8 7.79999)">
<stop stop-color="#87FCFF" stop-opacity="0"/>
<stop offset="0.997" stop-color="white"/>
</radialGradient>
<radialGradient id="paint23_radial_10_8241" cx="0" cy="0" r="1" gradientUnits="userSpaceOnUse" gradientTransform="translate(575.8 392.8) scale(4.80001 4.8)">
<stop stop-color="#87FCFF" stop-opacity="0"/>
<stop offset="0.997" stop-color="white"/>
</radialGradient>
<radialGradient id="paint24_radial_10_8241" cx="0" cy="0" r="1" gradientUnits="userSpaceOnUse" gradientTransform="translate(694.2 420.9) scale(14.2 14.2)">
<stop stop-color="#87FCFF" stop-opacity="0"/>
<stop offset="0.997" stop-color="white"/>
</radialGradient>
<radialGradient id="paint25_radial_10_8241" cx="0" cy="0" r="1" gradientUnits="userSpaceOnUse" gradientTransform="translate(694.2 420.9) scale(14.2 14.2)">
<stop stop-color="#87FCFF" stop-opacity="0"/>
<stop offset="0.997" stop-color="white"/>
</radialGradient>
<radialGradient id="paint26_radial_10_8241" cx="0" cy="0" r="1" gradientUnits="userSpaceOnUse" gradientTransform="translate(688.7 421.6) scale(7.8 7.80001)">
<stop stop-color="#87FCFF" stop-opacity="0"/>
<stop offset="0.997" stop-color="white"/>
</radialGradient>
<radialGradient id="paint27_radial_10_8241" cx="0" cy="0" r="1" gradientUnits="userSpaceOnUse" gradientTransform="translate(690.4 426.1) scale(4.80001 4.79999)">
<stop stop-color="#87FCFF" stop-opacity="0"/>
<stop offset="0.997" stop-color="white"/>
</radialGradient>
<radialGradient id="paint28_radial_10_8241" cx="0" cy="0" r="1" gradientUnits="userSpaceOnUse" gradientTransform="translate(574.5 540) scale(14.2 14.2)">
<stop stop-color="#87FCFF" stop-opacity="0"/>
<stop offset="0.997" stop-color="white"/>
</radialGradient>
<radialGradient id="paint29_radial_10_8241" cx="0" cy="0" r="1" gradientUnits="userSpaceOnUse" gradientTransform="translate(574.5 540) scale(14.2 14.2)">
<stop stop-color="#87FCFF" stop-opacity="0"/>
<stop offset="0.997" stop-color="white"/>
</radialGradient>
<radialGradient id="paint30_radial_10_8241" cx="0" cy="0" r="1" gradientUnits="userSpaceOnUse" gradientTransform="translate(569 540.7) scale(7.8 7.79999)">
<stop stop-color="#87FCFF" stop-opacity="0"/>
<stop offset="0.997" stop-color="white"/>
</radialGradient>
<radialGradient id="paint31_radial_10_8241" cx="0" cy="0" r="1" gradientUnits="userSpaceOnUse" gradientTransform="translate(570.7 545.3) scale(4.79998 4.80002)">
<stop stop-color="#87FCFF" stop-opacity="0"/>
<stop offset="0.997" stop-color="white"/>
</radialGradient>
<radialGradient id="paint32_radial_10_8241" cx="0" cy="0" r="1" gradientUnits="userSpaceOnUse" gradientTransform="translate(468.4 342.3) scale(14.2 14.2)">
<stop stop-color="#87FCFF" stop-opacity="0"/>
<stop offset="0.997" stop-color="white"/>
</radialGradient>
<radialGradient id="paint33_radial_10_8241" cx="0" cy="0" r="1" gradientUnits="userSpaceOnUse" gradientTransform="translate(468.4 342.3) scale(14.2 14.2)">
<stop stop-color="#87FCFF" stop-opacity="0"/>
<stop offset="0.997" stop-color="white"/>
</radialGradient>
<radialGradient id="paint34_radial_10_8241" cx="0" cy="0" r="1" gradientUnits="userSpaceOnUse" gradientTransform="translate(463 343) scale(7.79999 7.8)">
<stop stop-color="#87FCFF" stop-opacity="0"/>
<stop offset="0.997" stop-color="white"/>
</radialGradient>
<radialGradient id="paint35_radial_10_8241" cx="0" cy="0" r="1" gradientUnits="userSpaceOnUse" gradientTransform="translate(464.6 347.6) scale(4.8 4.8)">
<stop stop-color="#87FCFF" stop-opacity="0"/>
<stop offset="0.997" stop-color="white"/>
</radialGradient>
<linearGradient id="paint36_linear_10_8241" x1="516.8" y1="588.5" x2="565.8" y2="668.3" gradientUnits="userSpaceOnUse">
<stop offset="0.003" stop-color="white"/>
<stop offset="1" stop-color="#87FCFF" stop-opacity="0"/>
</linearGradient>
<linearGradient id="paint37_linear_10_8241" x1="487.6" y1="267.1" x2="536.7" y2="346.9" gradientUnits="userSpaceOnUse">
<stop offset="0.003" stop-color="white"/>
<stop offset="1" stop-color="#87FCFF" stop-opacity="0"/>
</linearGradient>
<linearGradient id="paint38_linear_10_8241" x1="647" y1="490.5" x2="684.4" y2="605.5" gradientUnits="userSpaceOnUse">
<stop offset="0.003" stop-color="white"/>
<stop offset="1" stop-color="#87FCFF" stop-opacity="0"/>
</linearGradient>
<linearGradient id="paint39_linear_10_8241" x1="350.7" y1="364.6" x2="388.1" y2="479.5" gradientUnits="userSpaceOnUse">
<stop offset="0.003" stop-color="white"/>
<stop offset="1" stop-color="#87FCFF" stop-opacity="0"/>
</linearGradient>
<linearGradient id="paint40_linear_10_8241" x1="395.9" y1="494.6" x2="381.5" y2="503.2" gradientUnits="userSpaceOnUse">
<stop offset="0.002" stop-color="#1CDEFF"/>
<stop offset="1" stop-color="#87FCFF"/>
</linearGradient>
<radialGradient id="paint41_radial_10_8241" cx="0" cy="0" r="1" gradientUnits="userSpaceOnUse" gradientTransform="translate(394.4 523.3) scale(17.4 17.4)">
<stop stop-color="#87FCFF" stop-opacity="0"/>
<stop offset="0.997" stop-color="white"/>
</radialGradient>
<radialGradient id="paint42_radial_10_8241" cx="0" cy="0" r="1" gradientUnits="userSpaceOnUse" gradientTransform="translate(394.6 532.3) scale(10.8 10.8)">
<stop stop-color="#87FCFF" stop-opacity="0"/>
<stop offset="0.997" stop-color="white"/>
</radialGradient>
<radialGradient id="paint43_radial_10_8241" cx="0" cy="0" r="1" gradientUnits="userSpaceOnUse" gradientTransform="translate(396.3 521.9) scale(4.9 4.90003)">
<stop stop-color="#87FCFF" stop-opacity="0"/>
<stop offset="0.997" stop-color="white"/>
</radialGradient>
<radialGradient id="paint44_radial_10_8241" cx="0" cy="0" r="1" gradientUnits="userSpaceOnUse" gradientTransform="translate(407.5 536.7) scale(3.1 3.1)">
<stop stop-color="#87FCFF" stop-opacity="0"/>
<stop offset="0.997" stop-color="white"/>
</radialGradient>
<linearGradient id="paint45_linear_10_8241" x1="582.9" y1="321.9" x2="602" y2="304.1" gradientUnits="userSpaceOnUse">
<stop offset="0.002" stop-color="#1CDEFF"/>
<stop offset="1" stop-color="#87FCFF"/>
</linearGradient>
<radialGradient id="paint46_radial_10_8241" cx="0" cy="0" r="1" gradientUnits="userSpaceOnUse" gradientTransform="translate(626.3 332) scale(27 27)">
<stop stop-color="#87FCFF" stop-opacity="0"/>
<stop offset="0.997" stop-color="white"/>
</radialGradient>
<radialGradient id="paint47_radial_10_8241" cx="0" cy="0" r="1" gradientUnits="userSpaceOnUse" gradientTransform="translate(639.5 336.4) scale(16.8 16.8)">
<stop stop-color="#87FCFF" stop-opacity="0"/>
<stop offset="0.997" stop-color="white"/>
</radialGradient>
<radialGradient id="paint48_radial_10_8241" cx="0" cy="0" r="1" gradientUnits="userSpaceOnUse" gradientTransform="translate(623.3 334.2) scale(7.59998 7.6)">
<stop stop-color="#87FCFF" stop-opacity="0"/>
<stop offset="0.997" stop-color="white"/>
</radialGradient>
<radialGradient id="paint49_radial_10_8241" cx="0" cy="0" r="1" gradientUnits="userSpaceOnUse" gradientTransform="translate(640.5 357.4) scale(4.79998 4.80001)">
<stop stop-color="#87FCFF" stop-opacity="0"/>
<stop offset="0.997" stop-color="white"/>
</radialGradient>
<linearGradient id="paint50_linear_10_8241" x1="592.5" y1="491.3" x2="801.5" y2="491.3" gradientUnits="userSpaceOnUse">
<stop offset="0.002" stop-color="#1CDEFF"/>
<stop offset="1" stop-color="#87FCFF"/>
</linearGradient>
<linearGradient id="paint51_linear_10_8241" x1="592.5" y1="491.3" x2="801.5" y2="491.3" gradientUnits="userSpaceOnUse">
<stop offset="0.002" stop-color="#1CDEFF"/>
<stop offset="1" stop-color="#87FCFF"/>
</linearGradient>
<linearGradient id="paint52_linear_10_8241" x1="592.5" y1="491.3" x2="801.5" y2="491.3" gradientUnits="userSpaceOnUse">
<stop offset="0.002" stop-color="#1CDEFF"/>
<stop offset="1" stop-color="#87FCFF"/>
</linearGradient>
<linearGradient id="paint53_linear_10_8241" x1="592.5" y1="532.5" x2="801.5" y2="532.5" gradientUnits="userSpaceOnUse">
<stop offset="0.002" stop-color="#1CDEFF"/>
<stop offset="1" stop-color="#87FCFF"/>
</linearGradient>
<linearGradient id="paint54_linear_10_8241" x1="802" y1="535.7" x2="592.9" y2="535.7" gradientUnits="userSpaceOnUse">
<stop offset="0.002" stop-color="#1CDEFF"/>
<stop offset="1" stop-color="#87FCFF"/>
</linearGradient>
<linearGradient id="paint55_linear_10_8241" x1="801.5" y1="696.6" x2="592.5" y2="696.6" gradientUnits="userSpaceOnUse">
<stop offset="0.002" stop-color="#1CDEFF"/>
<stop offset="1" stop-color="#87FCFF"/>
</linearGradient>
<linearGradient id="paint56_linear_10_8241" x1="778.8" y1="476.4" x2="918.9" y2="607.5" gradientUnits="userSpaceOnUse">
<stop offset="0.003" stop-color="white"/>
<stop offset="1" stop-color="#87FCFF" stop-opacity="0"/>
</linearGradient>
<linearGradient id="paint57_linear_10_8241" x1="649.2" y1="576" x2="615.6" y2="477.6" gradientUnits="userSpaceOnUse">
<stop offset="0.003" stop-color="white"/>
<stop offset="1" stop-color="#87FCFF" stop-opacity="0"/>
</linearGradient>
<radialGradient id="paint58_radial_10_8241" cx="0" cy="0" r="1" gradientUnits="userSpaceOnUse" gradientTransform="translate(609.8 624.4) scale(8.30004 8.30002)">
<stop stop-color="#87FCFF" stop-opacity="0"/>
<stop offset="0.997" stop-color="white"/>
</radialGradient>
<radialGradient id="paint59_radial_10_8241" cx="0" cy="0" r="1" gradientUnits="userSpaceOnUse" gradientTransform="translate(609.8 624.4) scale(8.30004 8.30002)">
<stop stop-color="#87FCFF" stop-opacity="0"/>
<stop offset="0.997" stop-color="white"/>
</radialGradient>
<radialGradient id="paint60_radial_10_8241" cx="0" cy="0" r="1" gradientUnits="userSpaceOnUse" gradientTransform="translate(607 622.8) scale(4.60001 4.6)">
<stop stop-color="#87FCFF" stop-opacity="0"/>
<stop offset="0.997" stop-color="white"/>
</radialGradient>
<radialGradient id="paint61_radial_10_8241" cx="0" cy="0" r="1" gradientUnits="userSpaceOnUse" gradientTransform="translate(606.199 625.5) scale(2.79996 2.79999)">
<stop stop-color="#87FCFF" stop-opacity="0"/>
<stop offset="0.997" stop-color="white"/>
</radialGradient>
<radialGradient id="paint62_radial_10_8241" cx="0" cy="0" r="1" gradientUnits="userSpaceOnUse" gradientTransform="translate(653.3 594.4) scale(8.3 8.29997)">
<stop stop-color="#87FCFF" stop-opacity="0"/>
<stop offset="0.997" stop-color="white"/>
</radialGradient>
<radialGradient id="paint63_radial_10_8241" cx="0" cy="0" r="1" gradientUnits="userSpaceOnUse" gradientTransform="translate(653.3 594.4) scale(8.3 8.29997)">
<stop stop-color="#87FCFF" stop-opacity="0"/>
<stop offset="0.997" stop-color="white"/>
</radialGradient>
<radialGradient id="paint64_radial_10_8241" cx="0" cy="0" r="1" gradientUnits="userSpaceOnUse" gradientTransform="translate(650.399 592.8) scale(4.59999 4.60002)">
<stop stop-color="#87FCFF" stop-opacity="0"/>
<stop offset="0.997" stop-color="white"/>
</radialGradient>
<radialGradient id="paint65_radial_10_8241" cx="0" cy="0" r="1" gradientUnits="userSpaceOnUse" gradientTransform="translate(649.6 595.5) scale(2.80002 2.80002)">
<stop stop-color="#87FCFF" stop-opacity="0"/>
<stop offset="0.997" stop-color="white"/>
</radialGradient>
<radialGradient id="paint66_radial_10_8241" cx="0" cy="0" r="1" gradientUnits="userSpaceOnUse" gradientTransform="translate(737.4 592.9) scale(8.29998 8.30002)">
<stop stop-color="#87FCFF" stop-opacity="0"/>
<stop offset="0.997" stop-color="white"/>
</radialGradient>
<radialGradient id="paint67_radial_10_8241" cx="0" cy="0" r="1" gradientUnits="userSpaceOnUse" gradientTransform="translate(737.4 592.9) scale(8.29998 8.30002)">
<stop stop-color="#87FCFF" stop-opacity="0"/>
<stop offset="0.997" stop-color="white"/>
</radialGradient>
<radialGradient id="paint68_radial_10_8241" cx="0" cy="0" r="1" gradientUnits="userSpaceOnUse" gradientTransform="translate(734.6 591.3) scale(4.59999 4.6)">
<stop stop-color="#87FCFF" stop-opacity="0"/>
<stop offset="0.997" stop-color="white"/>
</radialGradient>
<radialGradient id="paint69_radial_10_8241" cx="0" cy="0" r="1" gradientUnits="userSpaceOnUse" gradientTransform="translate(733.7 594) scale(2.8 2.79999)">
<stop stop-color="#87FCFF" stop-opacity="0"/>
<stop offset="0.997" stop-color="white"/>
</radialGradient>
<radialGradient id="paint70_radial_10_8241" cx="0" cy="0" r="1" gradientUnits="userSpaceOnUse" gradientTransform="translate(779.4 648.8) scale(8.29998 8.29997)">
<stop stop-color="#87FCFF" stop-opacity="0"/>
<stop offset="0.997" stop-color="white"/>
</radialGradient>
<radialGradient id="paint71_radial_10_8241" cx="0" cy="0" r="1" gradientUnits="userSpaceOnUse" gradientTransform="translate(779.4 648.8) scale(8.29998 8.29997)">
<stop stop-color="#87FCFF" stop-opacity="0"/>
<stop offset="0.997" stop-color="white"/>
</radialGradient>
<radialGradient id="paint72_radial_10_8241" cx="0" cy="0" r="1" gradientUnits="userSpaceOnUse" gradientTransform="translate(776.6 647.2) scale(4.59999 4.6)">
<stop stop-color="#87FCFF" stop-opacity="0"/>
<stop offset="0.997" stop-color="white"/>
</radialGradient>
<radialGradient id="paint73_radial_10_8241" cx="0" cy="0" r="1" gradientUnits="userSpaceOnUse" gradientTransform="translate(775.7 649.9) scale(2.80002 2.79999)">
<stop stop-color="#87FCFF" stop-opacity="0"/>
<stop offset="0.997" stop-color="white"/>
</radialGradient>
<radialGradient id="paint74_radial_10_8241" cx="0" cy="0" r="1" gradientUnits="userSpaceOnUse" gradientTransform="translate(681.4 662.5) scale(8.29998 8.30002)">
<stop stop-color="#87FCFF" stop-opacity="0"/>
<stop offset="0.997" stop-color="white"/>
</radialGradient>
<radialGradient id="paint75_radial_10_8241" cx="0" cy="0" r="1" gradientUnits="userSpaceOnUse" gradientTransform="translate(681.4 662.5) scale(8.29998 8.30002)">
<stop stop-color="#87FCFF" stop-opacity="0"/>
<stop offset="0.997" stop-color="white"/>
</radialGradient>
<radialGradient id="paint76_radial_10_8241" cx="0" cy="0" r="1" gradientUnits="userSpaceOnUse" gradientTransform="translate(678.6 661) scale(4.59999 4.6)">
<stop stop-color="#87FCFF" stop-opacity="0"/>
<stop offset="0.997" stop-color="white"/>
</radialGradient>
<radialGradient id="paint77_radial_10_8241" cx="0" cy="0" r="1" gradientUnits="userSpaceOnUse" gradientTransform="translate(677.7 663.7) scale(2.8 2.79999)">
<stop stop-color="#87FCFF" stop-opacity="0"/>
<stop offset="0.997" stop-color="white"/>
</radialGradient>
<radialGradient id="paint78_radial_10_8241" cx="0" cy="0" r="1" gradientUnits="userSpaceOnUse" gradientTransform="translate(701.1 532.5) scale(8.29998 8.30002)">
<stop stop-color="#87FCFF" stop-opacity="0"/>
<stop offset="0.997" stop-color="white"/>
</radialGradient>
<radialGradient id="paint79_radial_10_8241" cx="0" cy="0" r="1" gradientUnits="userSpaceOnUse" gradientTransform="translate(701.1 532.5) scale(8.29998 8.30002)">
<stop stop-color="#87FCFF" stop-opacity="0"/>
<stop offset="0.997" stop-color="white"/>
</radialGradient>
<radialGradient id="paint80_radial_10_8241" cx="0" cy="0" r="1" gradientUnits="userSpaceOnUse" gradientTransform="translate(698.3 531) scale(4.60001 4.6)">
<stop stop-color="#87FCFF" stop-opacity="0"/>
<stop offset="0.997" stop-color="white"/>
</radialGradient>
<radialGradient id="paint81_radial_10_8241" cx="0" cy="0" r="1" gradientUnits="userSpaceOnUse" gradientTransform="translate(697.5 533.7) scale(2.79996 2.79999)">
<stop stop-color="#87FCFF" stop-opacity="0"/>
<stop offset="0.997" stop-color="white"/>
</radialGradient>
<linearGradient id="paint82_linear_10_8241" x1="637.2" y1="665" x2="632.2" y2="719.6" gradientUnits="userSpaceOnUse">
<stop offset="0.003" stop-color="white"/>
<stop offset="1" stop-color="#87FCFF" stop-opacity="0"/>
</linearGradient>
<linearGradient id="paint83_linear_10_8241" x1="736.5" y1="504.1" x2="731.5" y2="558.7" gradientUnits="userSpaceOnUse">
<stop offset="0.003" stop-color="white"/>
<stop offset="1" stop-color="#87FCFF" stop-opacity="0"/>
</linearGradient>
<linearGradient id="paint84_linear_10_8241" x1="732.8" y1="664.8" x2="709.9" y2="731.9" gradientUnits="userSpaceOnUse">
<stop offset="0.003" stop-color="white"/>
<stop offset="1" stop-color="#87FCFF" stop-opacity="0"/>
</linearGradient>
<linearGradient id="paint85_linear_10_8241" x1="638.1" y1="501.6" x2="615.2" y2="568.7" gradientUnits="userSpaceOnUse">
<stop offset="0.003" stop-color="white"/>
<stop offset="1" stop-color="#87FCFF" stop-opacity="0"/>
</linearGradient>
<linearGradient id="paint86_linear_10_8241" x1="613.6" y1="578.5" x2="603.8" y2="577.4" gradientUnits="userSpaceOnUse">
<stop offset="0.002" stop-color="#1CDEFF"/>
<stop offset="1" stop-color="#87FCFF"/>
</linearGradient>
<radialGradient id="paint87_radial_10_8241" cx="0" cy="0" r="1" gradientUnits="userSpaceOnUse" gradientTransform="translate(602.8 591.4) scale(10.2 10.2)">
<stop stop-color="#87FCFF" stop-opacity="0"/>
<stop offset="0.997" stop-color="white"/>
</radialGradient>
<radialGradient id="paint88_radial_10_8241" cx="0" cy="0" r="1" gradientUnits="userSpaceOnUse" gradientTransform="translate(599.7 595.7) scale(6.39998 6.40002)">
<stop stop-color="#87FCFF" stop-opacity="0"/>
<stop offset="0.997" stop-color="white"/>
</radialGradient>
<radialGradient id="paint89_radial_10_8241" cx="0" cy="0" r="1" gradientUnits="userSpaceOnUse" gradientTransform="translate(604.2 591.4) scale(2.9 2.89999)">
<stop stop-color="#87FCFF" stop-opacity="0"/>
<stop offset="0.997" stop-color="white"/>
</radialGradient>
<radialGradient id="paint90_radial_10_8241" cx="0" cy="0" r="1" gradientUnits="userSpaceOnUse" gradientTransform="translate(604.2 602.3) scale(1.80002 1.79999)">
<stop stop-color="#87FCFF" stop-opacity="0"/>
<stop offset="0.997" stop-color="white"/>
</radialGradient>
<linearGradient id="paint91_linear_10_8241" x1="762" y1="563.2" x2="777.2" y2="561.6" gradientUnits="userSpaceOnUse">
<stop offset="0.002" stop-color="#1CDEFF"/>
<stop offset="1" stop-color="#87FCFF"/>
</linearGradient>
<radialGradient id="paint92_radial_10_8241" cx="0" cy="0" r="1" gradientUnits="userSpaceOnUse" gradientTransform="translate(778.7 583.2) scale(15.8 15.8)">
<stop stop-color="#87FCFF" stop-opacity="0"/>
<stop offset="0.997" stop-color="white"/>
</radialGradient>
<radialGradient id="paint93_radial_10_8241" cx="0" cy="0" r="1" gradientUnits="userSpaceOnUse" gradientTransform="translate(783.5 589.9) scale(9.80003 9.80003)">
<stop stop-color="#87FCFF" stop-opacity="0"/>
<stop offset="0.997" stop-color="white"/>
</radialGradient>
<radialGradient id="paint94_radial_10_8241" cx="0" cy="0" r="1" gradientUnits="userSpaceOnUse" gradientTransform="translate(776.6 583.2) scale(4.39998 4.40001)">
<stop stop-color="#87FCFF" stop-opacity="0"/>
<stop offset="0.997" stop-color="white"/>
</radialGradient>
<radialGradient id="paint95_radial_10_8241" cx="0" cy="0" r="1" gradientUnits="userSpaceOnUse" gradientTransform="translate(776.5 600.1) scale(2.79999 2.80003)">
<stop stop-color="#87FCFF" stop-opacity="0"/>
<stop offset="0.997" stop-color="white"/>
</radialGradient>
<linearGradient id="paint96_linear_10_8241" x1="232.2" y1="351.2" x2="642.9" y2="351.2" gradientUnits="userSpaceOnUse">
<stop offset="0.002" stop-color="#1CDEFF"/>
<stop offset="1" stop-color="#87FCFF"/>
</linearGradient>
<linearGradient id="paint97_linear_10_8241" x1="232.2" y1="351.2" x2="642.9" y2="351.2" gradientUnits="userSpaceOnUse">
<stop offset="0.002" stop-color="#1CDEFF"/>
<stop offset="1" stop-color="#87FCFF"/>
</linearGradient>
<linearGradient id="paint98_linear_10_8241" x1="232.2" y1="351.2" x2="642.9" y2="351.2" gradientUnits="userSpaceOnUse">
<stop offset="0.002" stop-color="#1CDEFF"/>
<stop offset="1" stop-color="#87FCFF"/>
</linearGradient>
<linearGradient id="paint99_linear_10_8241" x1="232.2" y1="432" x2="642.9" y2="432" gradientUnits="userSpaceOnUse">
<stop offset="0.002" stop-color="#1CDEFF"/>
<stop offset="1" stop-color="#87FCFF"/>
</linearGradient>
<linearGradient id="paint100_linear_10_8241" x1="643.8" y1="438.4" x2="233.1" y2="438.4" gradientUnits="userSpaceOnUse">
<stop offset="0.002" stop-color="#1CDEFF"/>
<stop offset="1" stop-color="#87FCFF"/>
</linearGradient>
<linearGradient id="paint101_linear_10_8241" x1="642.9" y1="754.4" x2="232.2" y2="754.4" gradientUnits="userSpaceOnUse">
<stop offset="0.002" stop-color="#1CDEFF"/>
<stop offset="1" stop-color="#87FCFF"/>
</linearGradient>
<linearGradient id="paint102_linear_10_8241" x1="598.3" y1="321.8" x2="873.5" y2="579.4" gradientUnits="userSpaceOnUse">
<stop offset="0.003" stop-color="white"/>
<stop offset="1" stop-color="#87FCFF" stop-opacity="0"/>
</linearGradient>
<linearGradient id="paint103_linear_10_8241" x1="343.7" y1="517.6" x2="277.7" y2="324.3" gradientUnits="userSpaceOnUse">
<stop offset="0.003" stop-color="white"/>
<stop offset="1" stop-color="#87FCFF" stop-opacity="0"/>
</linearGradient>
<radialGradient id="paint104_radial_10_8241" cx="0" cy="0" r="1" gradientUnits="userSpaceOnUse" gradientTransform="translate(266.3 612.5) scale(16.3 16.3)">
<stop stop-color="#87FCFF" stop-opacity="0"/>
<stop offset="0.997" stop-color="white"/>
</radialGradient>
<radialGradient id="paint105_radial_10_8241" cx="0" cy="0" r="1" gradientUnits="userSpaceOnUse" gradientTransform="translate(266.3 612.5) scale(16.3 16.3)">
<stop stop-color="#87FCFF" stop-opacity="0"/>
<stop offset="0.997" stop-color="white"/>
</radialGradient>
<radialGradient id="paint106_radial_10_8241" cx="0" cy="0" r="1" gradientUnits="userSpaceOnUse" gradientTransform="translate(260.8 609.4) scale(9.00002 9.00001)">
<stop stop-color="#87FCFF" stop-opacity="0"/>
<stop offset="0.997" stop-color="white"/>
</radialGradient>
<radialGradient id="paint107_radial_10_8241" cx="0" cy="0" r="1" gradientUnits="userSpaceOnUse" gradientTransform="translate(259.1 614.8) scale(5.5 5.49998)">
<stop stop-color="#87FCFF" stop-opacity="0"/>
<stop offset="0.997" stop-color="white"/>
</radialGradient>
<radialGradient id="paint108_radial_10_8241" cx="0" cy="0" r="1" gradientUnits="userSpaceOnUse" gradientTransform="translate(351.6 553.7) scale(16.3 16.3)">
<stop stop-color="#87FCFF" stop-opacity="0"/>
<stop offset="0.997" stop-color="white"/>
</radialGradient>
<radialGradient id="paint109_radial_10_8241" cx="0" cy="0" r="1" gradientUnits="userSpaceOnUse" gradientTransform="translate(351.6 553.7) scale(16.3 16.3)">
<stop stop-color="#87FCFF" stop-opacity="0"/>
<stop offset="0.997" stop-color="white"/>
</radialGradient>
<radialGradient id="paint110_radial_10_8241" cx="0" cy="0" r="1" gradientUnits="userSpaceOnUse" gradientTransform="translate(346.1 550.6) scale(8.99999 9.00004)">
<stop stop-color="#87FCFF" stop-opacity="0"/>
<stop offset="0.997" stop-color="white"/>
</radialGradient>
<radialGradient id="paint111_radial_10_8241" cx="0" cy="0" r="1" gradientUnits="userSpaceOnUse" gradientTransform="translate(344.4 555.9) scale(5.50001 5.50003)">
<stop stop-color="#87FCFF" stop-opacity="0"/>
<stop offset="0.997" stop-color="white"/>
</radialGradient>
<radialGradient id="paint112_radial_10_8241" cx="0" cy="0" r="1" gradientUnits="userSpaceOnUse" gradientTransform="translate(516.9 550.6) scale(16.3 16.3)">
<stop stop-color="#87FCFF" stop-opacity="0"/>
<stop offset="0.997" stop-color="white"/>
</radialGradient>
<radialGradient id="paint113_radial_10_8241" cx="0" cy="0" r="1" gradientUnits="userSpaceOnUse" gradientTransform="translate(516.9 550.6) scale(16.3 16.3)">
<stop stop-color="#87FCFF" stop-opacity="0"/>
<stop offset="0.997" stop-color="white"/>
</radialGradient>
<radialGradient id="paint114_radial_10_8241" cx="0" cy="0" r="1" gradientUnits="userSpaceOnUse" gradientTransform="translate(511.3 547.5) scale(8.99999 9.00001)">
<stop stop-color="#87FCFF" stop-opacity="0"/>
<stop offset="0.997" stop-color="white"/>
</radialGradient>
<radialGradient id="paint115_radial_10_8241" cx="0" cy="0" r="1" gradientUnits="userSpaceOnUse" gradientTransform="translate(509.7 552.9) scale(5.50001 5.49998)">
<stop stop-color="#87FCFF" stop-opacity="0"/>
<stop offset="0.997" stop-color="white"/>
</radialGradient>
<radialGradient id="paint116_radial_10_8241" cx="0" cy="0" r="1" gradientUnits="userSpaceOnUse" gradientTransform="translate(599.4 660.5) scale(16.3 16.3)">
<stop stop-color="#87FCFF" stop-opacity="0"/>
<stop offset="0.997" stop-color="white"/>
</radialGradient>
<radialGradient id="paint117_radial_10_8241" cx="0" cy="0" r="1" gradientUnits="userSpaceOnUse" gradientTransform="translate(599.4 660.5) scale(16.3 16.3)">
<stop stop-color="#87FCFF" stop-opacity="0"/>
<stop offset="0.997" stop-color="white"/>
</radialGradient>
<radialGradient id="paint118_radial_10_8241" cx="0" cy="0" r="1" gradientUnits="userSpaceOnUse" gradientTransform="translate(593.9 657.3) scale(8.99999 8.99996)">
<stop stop-color="#87FCFF" stop-opacity="0"/>
<stop offset="0.997" stop-color="white"/>
</radialGradient>
<radialGradient id="paint119_radial_10_8241" cx="0" cy="0" r="1" gradientUnits="userSpaceOnUse" gradientTransform="translate(592.2 662.7) scale(5.50001 5.50003)">
<stop stop-color="#87FCFF" stop-opacity="0"/>
<stop offset="0.997" stop-color="white"/>
</radialGradient>
<radialGradient id="paint120_radial_10_8241" cx="0" cy="0" r="1" gradientUnits="userSpaceOnUse" gradientTransform="translate(406.9 687.6) scale(16.3 16.3)">
<stop stop-color="#87FCFF" stop-opacity="0"/>
<stop offset="0.997" stop-color="white"/>
</radialGradient>
<radialGradient id="paint121_radial_10_8241" cx="0" cy="0" r="1" gradientUnits="userSpaceOnUse" gradientTransform="translate(406.9 687.6) scale(16.3 16.3)">
<stop stop-color="#87FCFF" stop-opacity="0"/>
<stop offset="0.997" stop-color="white"/>
</radialGradient>
<radialGradient id="paint122_radial_10_8241" cx="0" cy="0" r="1" gradientUnits="userSpaceOnUse" gradientTransform="translate(401.3 684.4) scale(8.99999 9.00001)">
<stop stop-color="#87FCFF" stop-opacity="0"/>
<stop offset="0.997" stop-color="white"/>
</radialGradient>
<radialGradient id="paint123_radial_10_8241" cx="0" cy="0" r="1" gradientUnits="userSpaceOnUse" gradientTransform="translate(399.7 689.8) scale(5.49999 5.49998)">
<stop stop-color="#87FCFF" stop-opacity="0"/>
<stop offset="0.997" stop-color="white"/>
</radialGradient>
<radialGradient id="paint124_radial_10_8241" cx="0" cy="0" r="1" gradientUnits="userSpaceOnUse" gradientTransform="translate(445.7 432.2) scale(16.3 16.3)">
<stop stop-color="#87FCFF" stop-opacity="0"/>
<stop offset="0.997" stop-color="white"/>
</radialGradient>
<radialGradient id="paint125_radial_10_8241" cx="0" cy="0" r="1" gradientUnits="userSpaceOnUse" gradientTransform="translate(445.7 432.2) scale(16.3 16.3)">
<stop stop-color="#87FCFF" stop-opacity="0"/>
<stop offset="0.997" stop-color="white"/>
</radialGradient>
<radialGradient id="paint126_radial_10_8241" cx="0" cy="0" r="1" gradientUnits="userSpaceOnUse" gradientTransform="translate(440.1 429) scale(8.99999 8.99998)">
<stop stop-color="#87FCFF" stop-opacity="0"/>
<stop offset="0.997" stop-color="white"/>
</radialGradient>
<radialGradient id="paint127_radial_10_8241" cx="0" cy="0" r="1" gradientUnits="userSpaceOnUse" gradientTransform="translate(438.5 434.4) scale(5.49999 5.5)">
<stop stop-color="#87FCFF" stop-opacity="0"/>
<stop offset="0.997" stop-color="white"/>
</radialGradient>
<linearGradient id="paint128_linear_10_8241" x1="320.2" y1="692.4" x2="310.3" y2="799.7" gradientUnits="userSpaceOnUse">
<stop offset="0.003" stop-color="white"/>
<stop offset="1" stop-color="#87FCFF" stop-opacity="0"/>
</linearGradient>
<linearGradient id="paint129_linear_10_8241" x1="515.3" y1="376.2" x2="505.4" y2="483.5" gradientUnits="userSpaceOnUse">
<stop offset="0.003" stop-color="white"/>
<stop offset="1" stop-color="#87FCFF" stop-opacity="0"/>
</linearGradient>
<linearGradient id="paint130_linear_10_8241" x1="507.8" y1="692.1" x2="462.9" y2="823.8" gradientUnits="userSpaceOnUse">
<stop offset="0.003" stop-color="white"/>
<stop offset="1" stop-color="#87FCFF" stop-opacity="0"/>
</linearGradient>
<linearGradient id="paint131_linear_10_8241" x1="321.8" y1="371.4" x2="276.8" y2="503.1" gradientUnits="userSpaceOnUse">
<stop offset="0.003" stop-color="white"/>
<stop offset="1" stop-color="#87FCFF" stop-opacity="0"/>
</linearGradient>
<linearGradient id="paint132_linear_10_8241" x1="273.701" y1="522.4" x2="254.401" y2="520.3" gradientUnits="userSpaceOnUse">
<stop offset="0.002" stop-color="#1CDEFF"/>
<stop offset="1" stop-color="#87FCFF"/>
</linearGradient>
<radialGradient id="paint133_radial_10_8241" cx="0" cy="0" r="1" gradientUnits="userSpaceOnUse" gradientTransform="translate(252.4 547.8) scale(20.1 20.1)">
<stop stop-color="#87FCFF" stop-opacity="0"/>
<stop offset="0.997" stop-color="white"/>
</radialGradient>
<radialGradient id="paint134_radial_10_8241" cx="0" cy="0" r="1" gradientUnits="userSpaceOnUse" gradientTransform="translate(246.5 556.3) scale(12.5 12.5)">
<stop stop-color="#87FCFF" stop-opacity="0"/>
<stop offset="0.997" stop-color="white"/>
</radialGradient>
<radialGradient id="paint135_radial_10_8241" cx="0" cy="0" r="1" gradientUnits="userSpaceOnUse" gradientTransform="translate(255.2 547.8) scale(5.60002 5.6)">
<stop stop-color="#87FCFF" stop-opacity="0"/>
<stop offset="0.997" stop-color="white"/>
</radialGradient>
<radialGradient id="paint136_radial_10_8241" cx="0" cy="0" r="1" gradientUnits="userSpaceOnUse" gradientTransform="translate(255.3 569.2) scale(3.59998 3.59998)">
<stop stop-color="#87FCFF" stop-opacity="0"/>
<stop offset="0.997" stop-color="white"/>
</radialGradient>
<linearGradient id="paint137_linear_10_8241" x1="565.3" y1="492.4" x2="595.1" y2="489.2" gradientUnits="userSpaceOnUse">
<stop offset="0.002" stop-color="#1CDEFF"/>
<stop offset="1" stop-color="#87FCFF"/>
</linearGradient>
<radialGradient id="paint138_radial_10_8241" cx="0" cy="0" r="1" gradientUnits="userSpaceOnUse" gradientTransform="translate(598.2 531.7) scale(31 31)">
<stop stop-color="#87FCFF" stop-opacity="0"/>
<stop offset="0.997" stop-color="white"/>
</radialGradient>
<radialGradient id="paint139_radial_10_8241" cx="0" cy="0" r="1" gradientUnits="userSpaceOnUse" gradientTransform="translate(607.4 544.9) scale(19.3 19.3)">
<stop stop-color="#87FCFF" stop-opacity="0"/>
<stop offset="0.997" stop-color="white"/>
</radialGradient>
<radialGradient id="paint140_radial_10_8241" cx="0" cy="0" r="1" gradientUnits="userSpaceOnUse" gradientTransform="translate(593.901 531.7) scale(8.7 8.70001)">
<stop stop-color="#87FCFF" stop-opacity="0"/>
<stop offset="0.997" stop-color="white"/>
</radialGradient>
<radialGradient id="paint141_radial_10_8241" cx="0" cy="0" r="1" gradientUnits="userSpaceOnUse" gradientTransform="translate(593.8 564.8) scale(5.50001 5.49999)">
<stop stop-color="#87FCFF" stop-opacity="0"/>
<stop offset="0.997" stop-color="white"/>
</radialGradient>
<radialGradient id="paint142_radial_10_8241" cx="0" cy="0" r="1" gradientUnits="userSpaceOnUse" gradientTransform="translate(435.2 780.8) scale(16.3 16.3)">
<stop stop-color="#87FCFF" stop-opacity="0"/>
<stop offset="0.997" stop-color="white"/>
</radialGradient>
<radialGradient id="paint143_radial_10_8241" cx="0" cy="0" r="1" gradientUnits="userSpaceOnUse" gradientTransform="translate(435.2 780.8) scale(16.3 16.3)">
<stop stop-color="#87FCFF" stop-opacity="0"/>
<stop offset="0.997" stop-color="white"/>
</radialGradient>
<radialGradient id="paint144_radial_10_8241" cx="0" cy="0" r="1" gradientUnits="userSpaceOnUse" gradientTransform="translate(429.6 777.7) scale(8.99999 8.99999)">
<stop stop-color="#87FCFF" stop-opacity="0"/>
<stop offset="0.997" stop-color="white"/>
</radialGradient>
<radialGradient id="paint145_radial_10_8241" cx="0" cy="0" r="1" gradientUnits="userSpaceOnUse" gradientTransform="translate(428 783) scale(5.49999 5.49998)">
<stop stop-color="#87FCFF" stop-opacity="0"/>
<stop offset="0.997" stop-color="white"/>
</radialGradient>
<radialGradient id="paint146_radial_10_8241" cx="0" cy="0" r="1" gradientUnits="userSpaceOnUse" gradientTransform="translate(724.5 711.4) scale(16.3 16.3)">
<stop stop-color="#87FCFF" stop-opacity="0"/>
<stop offset="0.997" stop-color="white"/>
</radialGradient>
<radialGradient id="paint147_radial_10_8241" cx="0" cy="0" r="1" gradientUnits="userSpaceOnUse" gradientTransform="translate(724.5 711.4) scale(16.3 16.3)">
<stop stop-color="#87FCFF" stop-opacity="0"/>
<stop offset="0.997" stop-color="white"/>
</radialGradient>
<radialGradient id="paint148_radial_10_8241" cx="0" cy="0" r="1" gradientUnits="userSpaceOnUse" gradientTransform="translate(719 708.3) scale(9.00005 8.99999)">
<stop stop-color="#87FCFF" stop-opacity="0"/>
<stop offset="0.997" stop-color="white"/>
</radialGradient>
<radialGradient id="paint149_radial_10_8241" cx="0" cy="0" r="1" gradientUnits="userSpaceOnUse" gradientTransform="translate(717.3 713.6) scale(5.49995 5.50003)">
<stop stop-color="#87FCFF" stop-opacity="0"/>
<stop offset="0.997" stop-color="white"/>
</radialGradient>
<radialGradient id="paint150_radial_10_8241" cx="0" cy="0" r="1" gradientUnits="userSpaceOnUse" gradientTransform="translate(773.9 779.8) scale(16.3 16.3)">
<stop stop-color="#87FCFF" stop-opacity="0"/>
<stop offset="0.997" stop-color="white"/>
</radialGradient>
<radialGradient id="paint151_radial_10_8241" cx="0" cy="0" r="1" gradientUnits="userSpaceOnUse" gradientTransform="translate(773.9 779.8) scale(16.3 16.3)">
<stop stop-color="#87FCFF" stop-opacity="0"/>
<stop offset="0.997" stop-color="white"/>
</radialGradient>
<radialGradient id="paint152_radial_10_8241" cx="0" cy="0" r="1" gradientUnits="userSpaceOnUse" gradientTransform="translate(768.4 776.7) scale(8.99999 9.00001)">
<stop stop-color="#87FCFF" stop-opacity="0"/>
<stop offset="0.997" stop-color="white"/>
</radialGradient>
<radialGradient id="paint153_radial_10_8241" cx="0" cy="0" r="1" gradientUnits="userSpaceOnUse" gradientTransform="translate(766.7 782) scale(5.50001 5.49998)">
<stop stop-color="#87FCFF" stop-opacity="0"/>
<stop offset="0.997" stop-color="white"/>
</radialGradient>
<radialGradient id="paint154_radial_10_8241" cx="0" cy="0" r="1" gradientUnits="userSpaceOnUse" gradientTransform="translate(831.7 608.4) scale(16.3 16.3)">
<stop stop-color="#87FCFF" stop-opacity="0"/>
<stop offset="0.997" stop-color="white"/>
</radialGradient>
<radialGradient id="paint155_radial_10_8241" cx="0" cy="0" r="1" gradientUnits="userSpaceOnUse" gradientTransform="translate(831.7 608.4) scale(16.3 16.3)">
<stop stop-color="#87FCFF" stop-opacity="0"/>
<stop offset="0.997" stop-color="white"/>
</radialGradient>
<radialGradient id="paint156_radial_10_8241" cx="0" cy="0" r="1" gradientUnits="userSpaceOnUse" gradientTransform="translate(826.2 605.2) scale(8.99999 9.00001)">
<stop stop-color="#87FCFF" stop-opacity="0"/>
<stop offset="0.997" stop-color="white"/>
</radialGradient>
<radialGradient id="paint157_radial_10_8241" cx="0" cy="0" r="1" gradientUnits="userSpaceOnUse" gradientTransform="translate(824.5 610.6) scale(5.50001 5.49998)">
<stop stop-color="#87FCFF" stop-opacity="0"/>
<stop offset="0.997" stop-color="white"/>
</radialGradient>
<linearGradient id="paint158_linear_10_8241" x1="438.2" y1="655.7" x2="468" y2="652.5" gradientUnits="userSpaceOnUse">
<stop offset="0.002" stop-color="#1CDEFF"/>
<stop offset="1" stop-color="#87FCFF"/>
</linearGradient>
<radialGradient id="paint159_radial_10_8241" cx="0" cy="0" r="1" gradientUnits="userSpaceOnUse" gradientTransform="translate(471.1 695) scale(31 31)">
<stop stop-color="#87FCFF" stop-opacity="0"/>
<stop offset="0.997" stop-color="white"/>
</radialGradient>
<radialGradient id="paint160_radial_10_8241" cx="0" cy="0" r="1" gradientUnits="userSpaceOnUse" gradientTransform="translate(480.3 708.1) scale(19.3 19.3)">
<stop stop-color="#87FCFF" stop-opacity="0"/>
<stop offset="0.997" stop-color="white"/>
</radialGradient>
<radialGradient id="paint161_radial_10_8241" cx="0" cy="0" r="1" gradientUnits="userSpaceOnUse" gradientTransform="translate(466.9 694.9) scale(8.7 8.69998)">
<stop stop-color="#87FCFF" stop-opacity="0"/>
<stop offset="0.997" stop-color="white"/>
</radialGradient>
<radialGradient id="paint162_radial_10_8241" cx="0" cy="0" r="1" gradientUnits="userSpaceOnUse" gradientTransform="translate(466.7 728.1) scale(5.50001 5.49999)">
<stop stop-color="#87FCFF" stop-opacity="0"/>
<stop offset="0.997" stop-color="white"/>
</radialGradient>
<radialGradient id="paint163_radial_10_8241" cx="0" cy="0" r="1" gradientUnits="userSpaceOnUse" gradientTransform="translate(182.5 697.5) scale(16.3 16.3)">
<stop stop-color="#87FCFF" stop-opacity="0"/>
<stop offset="0.997" stop-color="white"/>
</radialGradient>
<radialGradient id="paint164_radial_10_8241" cx="0" cy="0" r="1" gradientUnits="userSpaceOnUse" gradientTransform="translate(182.5 697.5) scale(16.3 16.3)">
<stop stop-color="#87FCFF" stop-opacity="0"/>
<stop offset="0.997" stop-color="white"/>
</radialGradient>
<radialGradient id="paint165_radial_10_8241" cx="0" cy="0" r="1" gradientUnits="userSpaceOnUse" gradientTransform="translate(176.9 694.4) scale(8.99999 8.99999)">
<stop stop-color="#87FCFF" stop-opacity="0"/>
<stop offset="0.997" stop-color="white"/>
</radialGradient>
<radialGradient id="paint166_radial_10_8241" cx="0" cy="0" r="1" gradientUnits="userSpaceOnUse" gradientTransform="translate(175.3 699.7) scale(5.5 5.49998)">
<stop stop-color="#87FCFF" stop-opacity="0"/>
<stop offset="0.997" stop-color="white"/>
</radialGradient>
<clipPath id="clip0_10_8241">
<rect width="1000" height="1000" fill="white"/>
</clipPath>
</defs>
</svg>
