<svg width="50" height="50" viewBox="0 0 50 50" fill="none" xmlns="http://www.w3.org/2000/svg">
<path d="M17.5 6.25H9.58333C8.41656 6.25 7.83317 6.25 7.38752 6.47707C6.99552 6.67681 6.67681 6.99552 6.47707 7.38752C6.25 7.83317 6.25 8.41656 6.25 9.58333V17.5C6.25 18.6668 6.25 19.2502 6.47707 19.6958C6.67681 20.0878 6.99552 20.4065 7.38752 20.6063C7.83317 20.8333 8.41656 20.8333 9.58333 20.8333H17.5C18.6668 20.8333 19.2502 20.8333 19.6958 20.6063C20.0878 20.4065 20.4065 20.0878 20.6063 19.6958C20.8333 19.2502 20.8333 18.6668 20.8333 17.5V9.58333C20.8333 8.41656 20.8333 7.83317 20.6063 7.38752C20.4065 6.99552 20.0878 6.67681 19.6958 6.47707C19.2502 6.25 18.6668 6.25 17.5 6.25Z" stroke="black" stroke-width="4" stroke-linecap="round" stroke-linejoin="round"/>
<path d="M40.4167 6.25H32.5C31.3332 6.25 30.7498 6.25 30.3042 6.47707C29.9122 6.67681 29.5935 6.99552 29.3937 7.38752C29.1667 7.83317 29.1667 8.41656 29.1667 9.58333V17.5C29.1667 18.6668 29.1667 19.2502 29.3937 19.6958C29.5935 20.0878 29.9122 20.4065 30.3042 20.6063C30.7498 20.8333 31.3332 20.8333 32.5 20.8333H40.4167C41.5834 20.8333 42.1668 20.8333 42.6125 20.6063C43.0045 20.4065 43.3232 20.0878 43.5229 19.6958C43.75 19.2502 43.75 18.6668 43.75 17.5V9.58333C43.75 8.41656 43.75 7.83317 43.5229 7.38752C43.3232 6.99552 43.0045 6.67681 42.6125 6.47707C42.1668 6.25 41.5834 6.25 40.4167 6.25Z" stroke="black" stroke-width="4" stroke-linecap="round" stroke-linejoin="round"/>
<path d="M40.4167 29.1667H32.5C31.3332 29.1667 30.7498 29.1667 30.3042 29.3937C29.9122 29.5935 29.5935 29.9122 29.3937 30.3042C29.1667 30.7498 29.1667 31.3332 29.1667 32.5V40.4167C29.1667 41.5834 29.1667 42.1668 29.3937 42.6125C29.5935 43.0045 29.9122 43.3232 30.3042 43.5229C30.7498 43.75 31.3332 43.75 32.5 43.75H40.4167C41.5834 43.75 42.1668 43.75 42.6125 43.5229C43.0045 43.3232 43.3232 43.0045 43.5229 42.6125C43.75 42.1668 43.75 41.5834 43.75 40.4167V32.5C43.75 31.3332 43.75 30.7498 43.5229 30.3042C43.3232 29.9122 43.0045 29.5935 42.6125 29.3937C42.1668 29.1667 41.5834 29.1667 40.4167 29.1667Z" stroke="black" stroke-width="4" stroke-linecap="round" stroke-linejoin="round"/>
<path d="M17.5 29.1667H9.58333C8.41656 29.1667 7.83317 29.1667 7.38752 29.3937C6.99552 29.5935 6.67681 29.9122 6.47707 30.3042C6.25 30.7498 6.25 31.3332 6.25 32.5V40.4167C6.25 41.5834 6.25 42.1668 6.47707 42.6125C6.67681 43.0045 6.99552 43.3232 7.38752 43.5229C7.83317 43.75 8.41656 43.75 9.58333 43.75H17.5C18.6668 43.75 19.2502 43.75 19.6958 43.5229C20.0878 43.3232 20.4065 43.0045 20.6063 42.6125C20.8333 42.1668 20.8333 41.5834 20.8333 40.4167V32.5C20.8333 31.3332 20.8333 30.7498 20.6063 30.3042C20.4065 29.9122 20.0878 29.5935 19.6958 29.3937C19.2502 29.1667 18.6668 29.1667 17.5 29.1667Z" stroke="black" stroke-width="4" stroke-linecap="round" stroke-linejoin="round"/>
</svg>
