<svg width="50" height="50" viewBox="0 0 50 50" fill="none" xmlns="http://www.w3.org/2000/svg">
<path d="M20.8334 36.7886V41.6665C20.8334 43.9677 22.6988 45.8332 25 45.8332C27.3012 45.8332 29.1667 43.9677 29.1667 41.6665V36.7886M25 4.1665V6.24984M6.25002 24.9998H4.16669M11.4584 11.4582L10.2082 10.208M38.5417 11.4582L39.7922 10.208M45.8334 24.9998H43.75M37.5 24.9998C37.5 31.9034 31.9036 37.4998 25 37.4998C18.0965 37.4998 12.5 31.9034 12.5 24.9998C12.5 18.0963 18.0965 12.4998 25 12.4998C31.9036 12.4998 37.5 18.0963 37.5 24.9998Z" stroke="black" stroke-width="4" stroke-linecap="round" stroke-linejoin="round"/>
</svg>
