<svg width="50" height="50" viewBox="0 0 50 50" fill="none" xmlns="http://www.w3.org/2000/svg">
<path d="M33.3333 35.4167L43.75 25M43.75 25L33.3333 14.5833M43.75 25H18.75M25 35.4167C25 37.3541 25 38.3228 24.787 39.1176C24.2091 41.2744 22.5244 42.9591 20.3676 43.537C19.5728 43.75 18.6041 43.75 16.6667 43.75H15.625C12.7129 43.75 11.2568 43.75 10.1082 43.2742C8.5768 42.6399 7.36009 41.4232 6.72575 39.8918C6.25 38.7432 6.25 37.2871 6.25 34.375V15.625C6.25 12.7129 6.25 11.2568 6.72575 10.1082C7.36009 8.5768 8.5768 7.36009 10.1082 6.72575C11.2568 6.25 12.7129 6.25 15.625 6.25H16.6667C18.6041 6.25 19.5728 6.25 20.3676 6.46296C22.5244 7.04088 24.2091 8.72556 24.787 10.8824C25 11.6772 25 12.6459 25 14.5833" stroke="black" stroke-width="4" stroke-linecap="round" stroke-linejoin="round"/>
</svg>
