<svg width="50" height="50" viewBox="0 0 50 50" fill="none" xmlns="http://www.w3.org/2000/svg">
<path d="M22.5695 31.25L26.0417 25H17.7084L21.1806 18.75M45.8334 27.0833V22.9167M14.1667 37.5H29.5834C33.0837 37.5 34.8339 37.5 36.1709 36.8188C37.3469 36.2196 38.303 35.2635 38.9022 34.0874C39.5834 32.7505 39.5834 31.0003 39.5834 27.5V22.5C39.5834 18.9997 39.5834 17.2495 38.9022 15.9126C38.303 14.7365 37.3469 13.7804 36.1709 13.1812C34.8339 12.5 33.0837 12.5 29.5834 12.5H14.1667C10.6664 12.5 8.91626 12.5 7.57931 13.1812C6.40329 13.7804 5.44717 14.7365 4.84796 15.9126C4.16675 17.2495 4.16675 18.9997 4.16675 22.5V27.5C4.16675 31.0003 4.16675 32.7505 4.84796 34.0874C5.44717 35.2635 6.40329 36.2196 7.57931 36.8188C8.91626 37.5 10.6664 37.5 14.1667 37.5Z" stroke="black" stroke-width="4" stroke-linecap="round" stroke-linejoin="round"/>
</svg>
