<svg width="50" height="50" viewBox="0 0 50 50" fill="none" xmlns="http://www.w3.org/2000/svg">
<path d="M22.3811 10.609C23.2278 10.4838 24.1013 10.4167 25.0009 10.4167C35.6363 10.4167 42.6152 19.8018 44.9598 23.5142C45.2436 23.9635 45.3854 24.1882 45.4649 24.5347C45.5245 24.795 45.5245 25.2055 45.4648 25.4658C45.3853 25.8123 45.2424 26.0385 44.9566 26.4908C44.332 27.4795 43.3795 28.869 42.1177 30.3759M14.009 13.9897C9.50469 17.0452 6.44677 21.2904 5.04397 23.511C4.75893 23.9622 4.61641 24.1878 4.53696 24.5343C4.47729 24.7946 4.47726 25.2051 4.5369 25.4653C4.61631 25.8118 4.75819 26.0365 5.04195 26.4858C7.38654 30.1982 14.3654 39.5833 25.0009 39.5833C29.2892 39.5833 32.9831 38.0575 36.0184 35.9929M6.25087 6.25L43.7509 43.75M20.5814 20.5806C19.4504 21.7116 18.7509 23.2741 18.7509 25C18.7509 28.4518 21.5491 31.25 25.0009 31.25C26.7268 31.25 28.2893 30.5504 29.4203 29.4194" stroke="black" stroke-width="4" stroke-linecap="round" stroke-linejoin="round"/>
</svg>
