<svg width="50" height="50" viewBox="0 0 50 50" fill="none" xmlns="http://www.w3.org/2000/svg">
<path d="M5.04192 26.4856C4.7582 26.0364 4.61634 25.8118 4.53692 25.4653C4.47728 25.205 4.47728 24.7946 4.53692 24.5344C4.61634 24.1879 4.7582 23.9633 5.04192 23.514C7.38652 19.8016 14.3654 10.4165 25.0008 10.4165C35.6363 10.4165 42.6152 19.8016 44.9598 23.514C45.2435 23.9633 45.3853 24.1879 45.4648 24.5344C45.5244 24.7946 45.5244 25.205 45.4648 25.4653C45.3853 25.8118 45.2435 26.0364 44.9598 26.4856C42.6152 30.1981 35.6363 39.5832 25.0008 39.5832C14.3654 39.5832 7.38652 30.1981 5.04192 26.4856Z" stroke="black" stroke-width="4" stroke-linecap="round" stroke-linejoin="round"/>
<path d="M25.0008 31.2498C28.4526 31.2498 31.2508 28.4516 31.2508 24.9998C31.2508 21.5481 28.4526 18.7498 25.0008 18.7498C21.5491 18.7498 18.7508 21.5481 18.7508 24.9998C18.7508 28.4516 21.5491 31.2498 25.0008 31.2498Z" stroke="black" stroke-width="4" stroke-linecap="round" stroke-linejoin="round"/>
</svg>
