<svg width="50" height="50" viewBox="0 0 50 50" fill="none" xmlns="http://www.w3.org/2000/svg">
<path d="M26.1667 12.6668C27.5995 10.3775 28.6152 7.85234 29.1667 5.2085C30.2083 10.4168 33.3333 15.4168 37.5 18.7502C41.6667 22.0835 43.75 26.0418 43.75 30.2085C43.7619 33.0883 42.9185 35.9067 41.3267 38.3066C39.7348 40.7065 37.4663 42.5796 34.8086 43.6887C32.1509 44.7977 29.2238 45.0927 26.3983 44.5362C23.5728 43.9796 20.9761 42.5967 18.9375 40.5627M14.5833 32.8752C19.1667 32.8752 22.9167 29.0627 22.9167 24.4377C22.9167 22.021 21.7292 19.7293 19.3542 17.7918C16.9792 15.8543 15.1875 12.9793 14.5833 9.9585C13.9792 12.9793 12.2083 15.8752 9.8125 17.7918C7.41667 19.7085 6.25 22.0418 6.25 24.4377C6.25 29.0627 10 32.8752 14.5833 32.8752Z" stroke="black" stroke-width="4" stroke-linecap="round" stroke-linejoin="round"/>
</svg>
