<svg width="50" height="50" viewBox="0 0 50 50" fill="none" xmlns="http://www.w3.org/2000/svg">
<path d="M4.16675 25H25.0001M18.7501 8.33332V41.6667M6.25008 18.75L12.5001 25L6.25008 31.25M25.0001 12.5L18.7501 18.75L12.5001 12.5M12.5001 37.5L18.7501 31.25L21.8751 34.375M41.6667 30.2815V8.33332C41.6667 6.03214 39.8013 4.16666 37.5001 4.16666C35.1989 4.16666 33.3334 6.03214 33.3334 8.33332V30.2815C30.8426 31.7224 29.1667 34.4155 29.1667 37.5C29.1667 42.1024 32.8977 45.8333 37.5001 45.8333C42.1025 45.8333 45.8334 42.1024 45.8334 37.5C45.8334 34.4155 44.1576 31.7224 41.6667 30.2815Z" stroke="black" stroke-width="4" stroke-linecap="round" stroke-linejoin="round"/>
</svg>
