<svg width="50" height="50" viewBox="0 0 50 50" fill="none" xmlns="http://www.w3.org/2000/svg">
<path fill-rule="evenodd" clip-rule="evenodd" d="M24.9857 10.6996C20.8204 5.83 13.8744 4.52009 8.65557 8.97919C3.43672 13.4383 2.70198 20.8937 6.80037 26.1675C9.89598 30.1509 18.6902 38.1478 22.8083 41.8227C23.5653 42.4982 23.9439 42.836 24.3871 42.969C24.7719 43.0844 25.1995 43.0844 25.5843 42.969C26.0275 42.836 26.406 42.4982 27.1631 41.8227C31.2812 38.1478 40.0754 30.1509 43.171 26.1675C47.2694 20.8937 46.6244 13.3914 41.3158 8.97919C36.0072 4.56699 29.151 5.83 24.9857 10.6996Z" stroke="black" stroke-width="4" stroke-linecap="round" stroke-linejoin="round"/>
<path d="M25 32.3332V23.9998M25 17.6665H25.0208" stroke="black" stroke-width="4" stroke-linecap="round" stroke-linejoin="round"/>
</svg>
